<mxfile host="Electron" agent="Mozilla/5.0 (Windows NT 10.0; Win64; x64) AppleWebKit/537.36 (KHTML, like Gecko) draw.io/28.0.6 Chrome/138.0.7204.100 Electron/37.2.3 Safari/537.36" version="28.0.6">
  <diagram name="PÃ¡gina-1" id="2lB1GnhzOsPG4ZE6LoF_">
    <mxGraphModel dx="1042" dy="626" grid="1" gridSize="10" guides="1" tooltips="1" connect="1" arrows="1" fold="1" page="1" pageScale="1" pageWidth="827" pageHeight="1169" math="0" shadow="0">
      <root>
        <mxCell id="0" />
        <mxCell id="1" parent="0" />
        <mxCell id="9tGZcHX2xvWMXHM-Ml2c-1" value="" style="rounded=0;whiteSpace=wrap;html=1;fillColor=none;dashed=1;" vertex="1" parent="1">
          <mxGeometry x="24" y="80" width="120" height="430" as="geometry" />
        </mxCell>
        <mxCell id="9tGZcHX2xvWMXHM-Ml2c-2" value="" style="rounded=0;whiteSpace=wrap;html=1;fillColor=none;dashed=1;" vertex="1" parent="1">
          <mxGeometry x="194" y="80" width="440" height="430" as="geometry" />
        </mxCell>
        <mxCell id="9tGZcHX2xvWMXHM-Ml2c-3" value="" style="rounded=0;whiteSpace=wrap;html=1;dashed=1;fillColor=none;strokeColor=light-dark(#000100,#EDEDED);" vertex="1" parent="1">
          <mxGeometry x="684" y="80" width="120" height="430" as="geometry" />
        </mxCell>
        <mxCell id="9tGZcHX2xvWMXHM-Ml2c-4" value="SOURCE" style="text;html=1;align=center;verticalAlign=middle;whiteSpace=wrap;rounded=0;fillColor=default;fontStyle=1;fontSize=17;" vertex="1" parent="1">
          <mxGeometry x="36" y="50" width="96" height="30" as="geometry" />
        </mxCell>
        <mxCell id="9tGZcHX2xvWMXHM-Ml2c-5" value="Data Warehouse" style="text;html=1;align=center;verticalAlign=middle;whiteSpace=wrap;rounded=0;fillColor=default;fontStyle=1;fontSize=17;" vertex="1" parent="1">
          <mxGeometry x="354" y="50" width="120" height="30" as="geometry" />
        </mxCell>
        <mxCell id="9tGZcHX2xvWMXHM-Ml2c-6" value="CONSUME" style="text;html=1;align=center;verticalAlign=middle;whiteSpace=wrap;rounded=0;fillColor=default;fontStyle=1;fontSize=17;" vertex="1" parent="1">
          <mxGeometry x="692" y="50" width="104" height="30" as="geometry" />
        </mxCell>
        <mxCell id="9tGZcHX2xvWMXHM-Ml2c-7" value="" style="rounded=0;whiteSpace=wrap;html=1;strokeColor=light-dark(#f06c00, #ededed);" vertex="1" parent="1">
          <mxGeometry x="200" y="120" width="130" height="380" as="geometry" />
        </mxCell>
        <mxCell id="9tGZcHX2xvWMXHM-Ml2c-8" value="" style="rounded=0;whiteSpace=wrap;html=1;strokeColor=light-dark(#ababab, #ededed);" vertex="1" parent="1">
          <mxGeometry x="351" y="120" width="126" height="380" as="geometry" />
        </mxCell>
        <mxCell id="9tGZcHX2xvWMXHM-Ml2c-9" value="" style="rounded=0;whiteSpace=wrap;html=1;strokeColor=light-dark(#FFCA28,#EDEDED);" vertex="1" parent="1">
          <mxGeometry x="500" y="120" width="130" height="380" as="geometry" />
        </mxCell>
        <mxCell id="9tGZcHX2xvWMXHM-Ml2c-10" value="BRONZE" style="text;html=1;align=center;verticalAlign=middle;whiteSpace=wrap;rounded=0;fillColor=#ffe6cc;fontStyle=1;fontSize=17;strokeColor=#d79b00;" vertex="1" parent="1">
          <mxGeometry x="217" y="100" width="96" height="30" as="geometry" />
        </mxCell>
        <mxCell id="9tGZcHX2xvWMXHM-Ml2c-11" value="SILVER" style="text;html=1;align=center;verticalAlign=middle;whiteSpace=wrap;rounded=0;fillColor=#f5f5f5;fontStyle=1;fontSize=17;fontColor=#333333;strokeColor=#666666;" vertex="1" parent="1">
          <mxGeometry x="366" y="100" width="96" height="30" as="geometry" />
        </mxCell>
        <mxCell id="9tGZcHX2xvWMXHM-Ml2c-12" value="GOLD" style="text;html=1;align=center;verticalAlign=middle;whiteSpace=wrap;rounded=0;fillColor=#fff2cc;fontStyle=1;fontSize=17;strokeColor=#d6b656;" vertex="1" parent="1">
          <mxGeometry x="517" y="100" width="96" height="30" as="geometry" />
        </mxCell>
        <mxCell id="9tGZcHX2xvWMXHM-Ml2c-15" value="" style="group" vertex="1" connectable="0" parent="1">
          <mxGeometry x="59.36" y="140" width="52.989999999999995" height="50" as="geometry" />
        </mxCell>
        <mxCell id="9tGZcHX2xvWMXHM-Ml2c-13" value="" style="image;aspect=fixed;html=1;points=[];align=center;fontSize=12;image=img/lib/azure2/general/Folder_Blank.svg;" vertex="1" parent="9tGZcHX2xvWMXHM-Ml2c-15">
          <mxGeometry width="49.29" height="40" as="geometry" />
        </mxCell>
        <mxCell id="9tGZcHX2xvWMXHM-Ml2c-14" value="" style="image;aspect=fixed;html=1;points=[];align=center;fontSize=12;image=img/lib/azure2/general/File.svg;" vertex="1" parent="9tGZcHX2xvWMXHM-Ml2c-15">
          <mxGeometry x="28.64" y="20" width="24.35" height="30" as="geometry" />
        </mxCell>
        <mxCell id="9tGZcHX2xvWMXHM-Ml2c-16" value="" style="group" vertex="1" connectable="0" parent="1">
          <mxGeometry x="60" y="220" width="52.989999999999995" height="50" as="geometry" />
        </mxCell>
        <mxCell id="9tGZcHX2xvWMXHM-Ml2c-17" value="" style="image;aspect=fixed;html=1;points=[];align=center;fontSize=12;image=img/lib/azure2/general/Folder_Blank.svg;" vertex="1" parent="9tGZcHX2xvWMXHM-Ml2c-16">
          <mxGeometry width="49.29" height="40" as="geometry" />
        </mxCell>
        <mxCell id="9tGZcHX2xvWMXHM-Ml2c-18" value="" style="image;aspect=fixed;html=1;points=[];align=center;fontSize=12;image=img/lib/azure2/general/File.svg;" vertex="1" parent="9tGZcHX2xvWMXHM-Ml2c-16">
          <mxGeometry x="28.64" y="20" width="24.35" height="30" as="geometry" />
        </mxCell>
        <mxCell id="9tGZcHX2xvWMXHM-Ml2c-19" value="CRM" style="text;html=1;align=center;verticalAlign=middle;whiteSpace=wrap;rounded=0;" vertex="1" parent="1">
          <mxGeometry x="55.85" y="190" width="60" height="30" as="geometry" />
        </mxCell>
        <mxCell id="9tGZcHX2xvWMXHM-Ml2c-20" value="ERP" style="text;html=1;align=center;verticalAlign=middle;whiteSpace=wrap;rounded=0;" vertex="1" parent="1">
          <mxGeometry x="56.489999999999995" y="270" width="60" height="30" as="geometry" />
        </mxCell>
        <mxCell id="9tGZcHX2xvWMXHM-Ml2c-22" value="" style="endArrow=none;html=1;rounded=0;" edge="1" parent="1">
          <mxGeometry width="50" height="50" relative="1" as="geometry">
            <mxPoint x="40" y="320" as="sourcePoint" />
            <mxPoint x="128" y="320" as="targetPoint" />
          </mxGeometry>
        </mxCell>
        <mxCell id="9tGZcHX2xvWMXHM-Ml2c-23" value="&lt;b&gt;Object Type&lt;/b&gt;: CSV file" style="text;html=1;align=left;verticalAlign=middle;whiteSpace=wrap;rounded=0;" vertex="1" parent="1">
          <mxGeometry x="30" y="340" width="110" height="30" as="geometry" />
        </mxCell>
        <mxCell id="9tGZcHX2xvWMXHM-Ml2c-24" value="&lt;div style=&quot;text-align: left;&quot;&gt;&lt;b style=&quot;background-color: transparent; color: light-dark(rgb(0, 0, 0), rgb(255, 255, 255));&quot;&gt;Interface&lt;/b&gt;&lt;span style=&quot;background-color: transparent; color: light-dark(rgb(0, 0, 0), rgb(255, 255, 255));&quot;&gt;: &lt;/span&gt;&lt;span style=&quot;background-color: transparent; color: light-dark(rgb(0, 0, 0), rgb(255, 255, 255));&quot;&gt;Files in folders&lt;/span&gt;&lt;/div&gt;" style="text;html=1;align=center;verticalAlign=middle;whiteSpace=wrap;rounded=0;" vertex="1" parent="1">
          <mxGeometry x="29" y="380" width="110" height="30" as="geometry" />
        </mxCell>
        <mxCell id="9tGZcHX2xvWMXHM-Ml2c-25" value="" style="html=1;verticalLabelPosition=bottom;align=center;labelBackgroundColor=#ffffff;verticalAlign=top;strokeWidth=2;strokeColor=#d79b00;shadow=0;dashed=0;shape=mxgraph.ios7.icons.data;fillColor=#ffe6cc;" vertex="1" parent="1">
          <mxGeometry x="241.5" y="160.9" width="47" height="49.1" as="geometry" />
        </mxCell>
        <mxCell id="9tGZcHX2xvWMXHM-Ml2c-26" value="" style="html=1;verticalLabelPosition=bottom;align=center;labelBackgroundColor=#ffffff;verticalAlign=top;strokeWidth=2;strokeColor=#666666;shadow=0;dashed=0;shape=mxgraph.ios7.icons.data;fillColor=#f5f5f5;fontColor=#333333;" vertex="1" parent="1">
          <mxGeometry x="390.5" y="160.9" width="47" height="49.1" as="geometry" />
        </mxCell>
        <mxCell id="9tGZcHX2xvWMXHM-Ml2c-27" value="" style="html=1;verticalLabelPosition=bottom;align=center;labelBackgroundColor=#ffffff;verticalAlign=top;strokeWidth=2;strokeColor=#d6b656;shadow=0;dashed=0;shape=mxgraph.ios7.icons.data;fillColor=#fff2cc;" vertex="1" parent="1">
          <mxGeometry x="541.5" y="160.9" width="47" height="49.1" as="geometry" />
        </mxCell>
        <mxCell id="9tGZcHX2xvWMXHM-Ml2c-28" value="Raw data" style="text;html=1;align=center;verticalAlign=middle;whiteSpace=wrap;rounded=0;" vertex="1" parent="1">
          <mxGeometry x="235" y="220" width="60" height="30" as="geometry" />
        </mxCell>
        <mxCell id="9tGZcHX2xvWMXHM-Ml2c-29" value="Cleaned, standardized data" style="text;html=1;align=center;verticalAlign=middle;whiteSpace=wrap;rounded=0;" vertex="1" parent="1">
          <mxGeometry x="347" y="220" width="134" height="30" as="geometry" />
        </mxCell>
        <mxCell id="9tGZcHX2xvWMXHM-Ml2c-30" value="Business-ready data" style="text;html=1;align=center;verticalAlign=middle;whiteSpace=wrap;rounded=0;" vertex="1" parent="1">
          <mxGeometry x="498" y="220" width="134" height="30" as="geometry" />
        </mxCell>
        <mxCell id="9tGZcHX2xvWMXHM-Ml2c-31" value="" style="endArrow=none;html=1;rounded=0;fillColor=#ffe6cc;strokeColor=#d79b00;" edge="1" parent="1">
          <mxGeometry width="50" height="50" relative="1" as="geometry">
            <mxPoint x="221" y="260" as="sourcePoint" />
            <mxPoint x="309" y="260" as="targetPoint" />
          </mxGeometry>
        </mxCell>
        <mxCell id="9tGZcHX2xvWMXHM-Ml2c-32" value="" style="endArrow=none;html=1;rounded=0;fillColor=#f5f5f5;strokeColor=#666666;" edge="1" parent="1">
          <mxGeometry width="50" height="50" relative="1" as="geometry">
            <mxPoint x="370" y="260" as="sourcePoint" />
            <mxPoint x="458" y="260" as="targetPoint" />
          </mxGeometry>
        </mxCell>
        <mxCell id="9tGZcHX2xvWMXHM-Ml2c-33" value="" style="endArrow=none;html=1;rounded=0;fillColor=#fff2cc;strokeColor=#d6b656;" edge="1" parent="1">
          <mxGeometry width="50" height="50" relative="1" as="geometry">
            <mxPoint x="521" y="260" as="sourcePoint" />
            <mxPoint x="609" y="260" as="targetPoint" />
          </mxGeometry>
        </mxCell>
        <mxCell id="9tGZcHX2xvWMXHM-Ml2c-34" value="" style="shape=singleArrow;whiteSpace=wrap;html=1;arrowWidth=0.27333272298177086;arrowSize=0.43333350287543404;" vertex="1" parent="1">
          <mxGeometry x="158" y="215" width="36" height="60" as="geometry" />
        </mxCell>
        <mxCell id="9tGZcHX2xvWMXHM-Ml2c-35" value="" style="shape=singleArrow;whiteSpace=wrap;html=1;arrowWidth=0.27333272298177086;arrowSize=0.43333350287543404;" vertex="1" parent="1">
          <mxGeometry x="330" y="215" width="20" height="60" as="geometry" />
        </mxCell>
        <mxCell id="9tGZcHX2xvWMXHM-Ml2c-36" value="" style="shape=singleArrow;whiteSpace=wrap;html=1;arrowWidth=0.27333272298177086;arrowSize=0.43333350287543404;" vertex="1" parent="1">
          <mxGeometry x="478" y="215" width="20" height="60" as="geometry" />
        </mxCell>
        <mxCell id="9tGZcHX2xvWMXHM-Ml2c-39" value="" style="shape=singleArrow;whiteSpace=wrap;html=1;arrowWidth=0.27333272298177086;arrowSize=0.43333350287543404;" vertex="1" parent="1">
          <mxGeometry x="640" y="215" width="36" height="60" as="geometry" />
        </mxCell>
        <mxCell id="9tGZcHX2xvWMXHM-Ml2c-40" value="&lt;b&gt;Object Type&lt;/b&gt;: Table&lt;div&gt;&lt;br&gt;&lt;/div&gt;&lt;div&gt;&lt;b&gt;Load:&amp;nbsp;&lt;/b&gt;&lt;/div&gt;&lt;div&gt;&amp;nbsp; - Batch processing&lt;br&gt;&lt;/div&gt;&lt;div&gt;&amp;nbsp; - Full Load&lt;/div&gt;&lt;div&gt;&amp;nbsp; - Truncate &amp;amp; Insert&lt;/div&gt;&lt;div&gt;&lt;br&gt;&lt;/div&gt;&lt;div&gt;&lt;b&gt;No transformations&lt;/b&gt;&lt;/div&gt;&lt;div&gt;&lt;b&gt;Data model: &lt;/b&gt;No (as-is)&lt;/div&gt;" style="text;html=1;align=left;verticalAlign=middle;whiteSpace=wrap;rounded=0;" vertex="1" parent="1">
          <mxGeometry x="203" y="267" width="127" height="140" as="geometry" />
        </mxCell>
        <mxCell id="9tGZcHX2xvWMXHM-Ml2c-41" value="&lt;b&gt;Object Type&lt;/b&gt;: Table&lt;div&gt;&lt;br&gt;&lt;/div&gt;&lt;div&gt;&lt;b&gt;Load:&amp;nbsp;&lt;/b&gt;&lt;/div&gt;&lt;div&gt;&amp;nbsp; - Batch processing&lt;br&gt;&lt;/div&gt;&lt;div&gt;&amp;nbsp; - Full Load&lt;/div&gt;&lt;div&gt;&amp;nbsp; - Truncate &amp;amp; Insert&lt;/div&gt;&lt;div&gt;&lt;br&gt;&lt;/div&gt;&lt;div&gt;&lt;b&gt;Transformations:&lt;/b&gt;&lt;/div&gt;&lt;div&gt;&lt;b&gt;&amp;nbsp; &lt;/b&gt;- Data cleansing&lt;/div&gt;&lt;div&gt;&amp;nbsp; - Data standarization&lt;/div&gt;&lt;div&gt;&amp;nbsp; - Data Normalization&lt;/div&gt;&lt;div&gt;&amp;nbsp; - Derived Columns&lt;/div&gt;&lt;div&gt;&amp;nbsp; - Data Enrichment&lt;/div&gt;&lt;div&gt;&lt;b&gt;&lt;br&gt;&lt;/b&gt;&lt;/div&gt;&lt;div&gt;&lt;b&gt;Data model: &lt;/b&gt;No (as-is)&lt;/div&gt;" style="text;html=1;align=left;verticalAlign=middle;whiteSpace=wrap;rounded=0;" vertex="1" parent="1">
          <mxGeometry x="351" y="260" width="127" height="240" as="geometry" />
        </mxCell>
        <mxCell id="9tGZcHX2xvWMXHM-Ml2c-42" value="&lt;b&gt;Object Type&lt;/b&gt;: Views&lt;div&gt;&lt;br&gt;&lt;/div&gt;&lt;div&gt;&lt;b&gt;Load: None&lt;/b&gt;&lt;/div&gt;&lt;div&gt;&lt;br&gt;&lt;/div&gt;&lt;div&gt;&lt;b&gt;Transformations:&lt;/b&gt;&lt;/div&gt;&lt;div&gt;&lt;b&gt;&amp;nbsp; &lt;/b&gt;- Data Integration&lt;/div&gt;&lt;div&gt;&amp;nbsp; - Data Aggregation&lt;/div&gt;&lt;div&gt;&amp;nbsp; - Business Logic &amp;amp;&amp;nbsp; &amp;nbsp; &amp;nbsp; &amp;nbsp; &amp;nbsp; Rules&lt;/div&gt;&lt;div&gt;&lt;b&gt;&lt;br&gt;&lt;/b&gt;&lt;/div&gt;&lt;div&gt;&lt;b&gt;Data model:&lt;/b&gt;&lt;/div&gt;&lt;div&gt;&amp;nbsp; - Star schema&lt;/div&gt;&lt;div&gt;&amp;nbsp; - Aggregated Objects&lt;/div&gt;&lt;div&gt;&amp;nbsp; - Flat tables&lt;/div&gt;" style="text;html=1;align=left;verticalAlign=middle;whiteSpace=wrap;rounded=0;" vertex="1" parent="1">
          <mxGeometry x="505" y="260" width="127" height="230" as="geometry" />
        </mxCell>
        <mxCell id="9tGZcHX2xvWMXHM-Ml2c-43" value="" style="shape=image;verticalLabelPosition=bottom;labelBackgroundColor=default;verticalAlign=top;aspect=fixed;imageAspect=0;image=data:image/png,iVBORw0KGgoAAAANSUhEUgAAAF0AAAEMCAYAAACm1LolAAAAAXNSR0IArs4c6QAAAARnQU1BAACxjwv8YQUAAAAJcEhZcwAADsMAAA7DAcdvqGQAAHSkSURBVHhexf13mB/HdecLf6r7FybnjBnkAUAEkiAJ5kyRFCVSpCxLlCzJln2t12G9yY/X13tlyXr3vY/WtvZZr2T72lpZ16ucbCpRpCgGUQBBIpHIeZAmYAImp1/srveP7tNTU9O/ASjL936fp2Z+ferUqVOncnV1lSoUClopheM4KKXQWuP7PrOzsyQSCSoqKhBordFao5RCKRXRxc+m+b6P1jqSLchmsxQKBcrKykgmk4v4ARzHiWjExCt6ep6Hqbsgl8vhOA6JRCLiFTnAIhlxfmacQhOdtNbk83lc1yWRSCCwdTTpIkOgcrmcxkioBJ6fnyeRSJBOpyNm8beNa9NNxc1nQS6Xo1AokE6nFxld+G3YckyDSSLNxOZyOQASiQSu60YyTDm2cU2/OD1M/kKhEBld6HEFTIcFWMJHbmBgIDK6mZhisYhSKlK6FMwIrhW+7+P7PolEYlGpNhP/dqCskuh53hK6+Okwo+xCZhonTgdJJ6H+YsBfBEtKOqEic3NzuK5LeXn5IrpEaPNLYhYUcdAaHPK4ykcrkKTkcjny+QLpdIpUKqyiOoHWCq0SgAP4LIQIYCfUNpbQ8vk8SqkoU8WI8l/kaK1RgQc6jM2UI2mKk2/WIlu2iTi6KhQKWmuN67qRh7TprutSUVGxiC5GNyMUuuM4C5mhFUXPQxezoIuLjJ4Pm5dUKkUqnUQp0DqBoxK4iSTgghIzLGCR4jFttSCfz0dtuvCWggqDagLDYxi8FDzPi9JqZsYSG4QwM09rHRhdWSX3aka3BcfRlZ5ieuQihUvfxpk5gEsGhzxIonwPBeiwRPuqjPLqRtKrPwqNd6PderRa6MSJMToxBgcoFotLdLShdChLjG6JseVq5UfZUsroYlxxpVBaq7cBybRFERWLjI2MMDQ0xOTkBBOTk5GbnJpienqGqakppqenmZqaYnJykpGhQabHx/ELhSWl/FohtXC5RF8LTOMFLjCy4zi4rovrulGar2Zou+Y4Ukr9sPe1GUyaOJvf9308z1ssw5nAd3pJcZ4qeqjS/VT5I5Try6TpI00/Zeoy5foKlXqCKgap5CJpPYrjz4HOoyiGbXtpxCU6jqZR+CiKKPIaitrKVoegCQydDaUWyw1ohvwYO5m28TyPYrEY1ELbs1gsLjKgyWwaNY7u+35E0yUy7ppLsPaX1vlrxHKlLp/Lcfr0KS5dukg+HzR3gsCwoXMWu6DHFb5A/uJ0LU5nbEEMnSNVJZFIRE6qpwqrqkmXKmbzS7UTmiLoOZXWOBpQPp4q4GuF9pMoL4lTTIKn0X4B7RXB8wJjO4DjBh2qmdpY6LA2lHYq/K+VpoDH0NgIozNT5NAUXCi64KvQOTpwYccfV0xKZahdC0x7LXJmlYlzce1WnDP5ImiN9heXhoCs0dpHh6U5Kh06rPNKXYOxLUhYrcG3247F0MK7DMzSbqpipyUOph1s2ziOs9CRmsLs6rCIjg8qGHGUilxrjfZAeQqlg9YUH/AcnKJD0nNwNGi8wPh+YHDty1gmSK22U7wcdIHs1Ai5K5fQ2StAIRwnOBQ9zcDIMCd6znDyXA/Dk5P0jw1z8sJZTvT0MDw+ScH3FsaPwMzMLAMDg0xOTuH7wWTrF4WdUY4Qbdgl2aSZPMtBa9C+j/bM9llKeVDadFjCo/9cu51N+Pk8586eZf/+/YwODaE9L0psoVBgcHCQ06dP09NzlvGxMYaHhjh9+gynT59mcmIC7eugSQztsX//fr76la9y/NjxaHZup78UtDHYkDZd6FrrYPRiMpqNv/ksv/FU0AgWFKoAqphFFafBn8H3pvGK06DnUb4HRUXRS5D3UxT8BAXfoeiD7+vAaY1GgXYIKpBGe0V0MY9XLCzSpTQUWiscsig9QSp3kUThLHgzEJqxLJXm5m1bee87H+HxdzzKpjXd3HDd9bz7kcd48p2PsGl1J6mEQuOhtAd+kRm3mtF0K9lEOVqpsKB4Rl+xnE6LYZZ0rXUwerGNHRdgcW75YQn28ApFCoUihUKBQrEQ/C8U8IvFsHQrNBrP9/H8IC4752XSIW18HOwSZspYDA1hTdKhbYK2NBgwuK6L67g4jsJRKvzthDVQB7UzlKkcKflL7XCtiOOPOlJ70I/RCUTKui64Ct/VaKeXzPxOZkc+R27wjyj2/xt0329D/2+i+z5KZuQ/0dT4HdZeD53Xb6Fr2yZqOlsgncJHobWD9t2gnfcd8B0giVIuSi2O03GMQXSUEB/wUGRReg50hkQxQ9qbw/VmcPxpHD0NOgs6H/SvfhK0S9JNkXZcUmhcHJR2USRQJMBJoJ1kWAODGDxAOS6Ok0A5iVD/BSPaBULsJs5smhzHQeXzeY2xykg4rZf19PLy8igTtNb42g8GGPkLTF05hZ/ZR0pdiqb5MjzzHB8Pj7J8jnQhD/gUchmmBobJT8+GC01BJ6oIhmtuMkHN5v9I+cYPQHkXqNqFlMiMJezssvMzzExN4efncfBw8hP0XzhJcbSHdZ31OO23kEm2onWCispqKuoacZJlFHyYz+YoSzmkUwkcrchlsgyNjDAzNwcKPK15q+cyJ84PcP3aNjat7iCdcED7VFRU0NLSQnVF5SJjSw22232pHabh35bRfd+niI92FMnsMWauHMLN/JxKdSaKRKDQaN/H94OIle+Tz2WZ6huiMDVLQivwwyZAKVCaZDJB9db/SNmmD0B5J1rVRON92+jzvfu4cGQXhSunKPdnUI5PoZjDKUyTVAWKTi2+U07RraVzzSYat70T6tag3SQ4Lj4OGgfHU1wZGufZNw5w8lI/vg70yRWKaF+TcB0cFTRFjlKsW9HMQ/fuYNWKVlzACVcqbaOrmCVisa/K5/PaZOSajO6QzB1jZuQgzvyrVHB6SbeitLStYUSR0QfJTcyQIBg2ynBFm0bf+H50eSfaqUFpFRp+wehKKZg9B9O9kB8Efwa8HCM9pymM9dO4qoOy1rXgVoCqgfI6qLkOUq2xRs9nipybmGMsmwfl4Gs4dfoMZ8/2sGHDetavW0cqkQStqS93aGuqpLosGWt0szmxjS6I1tPNKuH7PvPz87iuS1lZGU64Jq21xlce2tGkckeZHX0LZ/51ynTPkgiU9lFRx6NxfE0hm2eyf4js1AyudnD8YLVPodDKJ5F0qdry7ynb+H78ina0U41DAoWDMsbsWge1yFHhIE9ryI9x8vAe5gaOsX7zamrW3gepDhzpnCV5c+MUpsdwcHFratEVDeCkws48yFDP8/jx7sO8dvA4j96xjTu3byGdSoQlREGg0aJOX0Z4AtPoUgOEvmRyZBtP/JbHQljT+b4XuoXxqh+Oluy47OfloKJZnrVIKrXVMSZVVic3NjLCzldf5bVduxgfG1/kh1FiNYGNdTTRDXQzx/ImxKi2DYTP/F9y7UV6XtdNkHCToUvhuuEbE0eD8tAUw1lqMF5WaJygf4ew+rm+j+NrVOgcvTD5kwmRVgqtHJQTjl5UApcEjnZwcIMaETCCVvg4eEpRVC5FJ4HvuniOQ95J4btl4ChQRbTjoxNifIfq3Ch1E6epmrpAMjsMXjbQUykcmfc7iqTOk/YyJPBxAFe5KO3ie2FTp1S0PiNQ1lqVac9FozE7xwRmTvmS40ZJhWCl0QtnflLVfN/HC0u3neO+H4xWzBKwEJcRuQVbTj5f4Ny5C/T1XaZQKEZ8ruuSTCaCDIbAiG8TygmMV1FeQUNDA+l0OjJsb28vX/v6N9i37xC5XMEKee0wtNKYMy2li7g6R8Kfx/VncPQcLhnSukiZVrhKoxwPX4GnHIquTyGRx8MLDOsX0V4e7QcOP4+rCyj8xZMNX+N7Pr6n8f3F41+B2d94CuY9j3OXL3NuaIjZQh5Pge9U0rnmBrpvejeV7behdC3kFaqoUJ4GLwistY+vihQchee4BIOjhbdCAI7jsm3jap56x51ct24l6WQCH5iamaO/b5LJCY3vL2y/EJh6Lve8bFHwfY1f9KBQQOfz+Pk8xUKBYrGADl9ZJcKXv06wZAlhyVxc0o32XIftu794BVJrM9mLITVLydDNCV5663C2qRQ4CZfq2lpqm5tJVlSAGxjF94p4xWKwdOwHC2yGYDwveH+gfY1fXJg3NNbV0tW1gpqamqjviAqEVVNLIY5HKYWanJzUdo5orfFzF3D8KySdAVx1ZcEvdIos2suS8HIkKaL9LIXcPIXMBXTxCq5fxPF9CNcrlO9SzHmMDUyQmcySUImFdhrQaBLJBJVb/y3V65+kUN5OwanB1S4uLm4ywczsLJPzWebyBY6cPoVKJlm/agXV5WkaqsporK6CRAqNQ4IMUyP9zB7bix4boKJQJFn0mJ8eYXSwl4Ry6Ghrx6ltoeCmKbhpqhtbqLhuBzR2QLIcjcvY+BxXxqbIZX0uXuhl//7jrF27iS1b1lJWlmDlygbq6ivI5wthUxcUMnP0glHKfXRg9MgnhNYaP3sBvzBEOnGZpDO24EfQjzjkUKpAws/h+gXQeYr5OXKzPRRzQyR8H1cvNfr4wCTzU1kSUecYRK/ROIkEVVv/gNrupyiUdZB3anBxSbkpcBSHDh/m+NlzZIoek5l5VDJJXWWadEKxZd1qtm7cQLqyGh9Fwp+j/9wpLv78x8z1n6M8XyDl+SR0BsfL4qBwlUPGraCQSFN0y2hZsZI19z9O5apudKIcrRK8dfAEu17bw9joNLlckfk5TSpVSVkZlJUleOqpd7B5y3ryuQLFoiwPL5hUDB+NblS4BUOpQIEFRp/s1F7ycydJOxOk1EzkBzJikSFI8N/xCxTzWQozJ/Czfbi6iKN9NIHRHT9BMe8x1j/D/GSeJAmUH5R0RbAMkEglqd/+H6ja+jS6vAOtqsORixMssGmfouMwPjPHnjffIlVRwbYtm6mprsTxNQkgGY6efJVhcnaUwsgoaV/jOpVonWS+ZycXD+3ET9exbtP1OC1ryLjlKA0V5eXUdHSRqq6lqIIJVDT41HDgwCGe//FONm++gQceuIm6+jLc8IW1aVxtjMuXTJqK5jg9MuoClDLeWYUo3fIudI7ms7Drki89Ftp0z/PxfB/tByuUAR2jMQ0SUl5WTiqVwnUcHCcYObthex8MX4ORS211La2r19CwZi21K1dS19VFy4pOKirKKS8vp3LNGlq3bmH11q2s2rqV5nXrSFdVBcaJRuRhzArKy8tJJpPU1NRQWVWFm0igzHUpa4Ik6bXTHRldIvCVoohDUSUoOAl8x0M7GbQKHXm0LgbNRlj6tPbRysNXRZRfIOkVgzadIkoXg9lpaH0xcLA84IB20L5C+yoq+YE+4dKEjKbCDjSpHBK+T5mGCg1VvqbGh4pMjnOv7+XoV3/AzL5zOPNJEroW5dahE7XBkkCiDK3Kgv00Thpw0ZSDUw1OFTiV+KQpeA5vHuzn29/Zx9GjvcHwMHxhpvBQuhA2mwsIOvSlAwkzEwCKScPoC8YIStdyJfpaocMRSVRiF3tGr+nkzdGCX/hHS/UMFVcKFJSVpbjh+uvZvHkLFeXBhiTt+xw/cZyXX3mFwb5+dDHmFZsM2WQitGh2qQlmtMHzmwcO8OX/9b84dvQYXiiruaWFh9/xDjZu7MZNxO/xFBvG0cQtvMSQKbvn44cvdoMFqSJa5yMHBVDFyAU5H6yzOICjfZQOhma+1uB7wVt+z0PLmyfPRXvB63ftBzNZ+a+0A74Kqqr2QsME5V2jwQ/0aqiupKGyjKQDoFGeTzJXpG6+SNmcBzJn0g7oRLC7wAGfCnzVgOfWot1KUDLedgAHhcJRUHArySTrKKoUhPnV1lLPjh2bWL26nnQynJRbhjV/26UcwA3tFEz3HRfHcXHcsJ2035aYBdHKuYVIglIbvCUKMtHzg0yU0hy9H10WgaGvBiVs1pB3OaRSSerr6qipqSGxaK9jMPDXhJsJQicdoLyFioOdHmlm7P8CJyKEbZKDCnMweIvvhA48tA4c+Ci8oM2mACqoAQ7BjBMVDhV9D+2H4XwvSI0f7BIIFv90sFsgXJMJFrNBuQ7KSaBU2FE5QbMSeOpgqu4DeWBewSwwWaR6qkjdvE8yo1HTHmpao+ZBzfmQC/fVdG9kxQc+xMp3v5eyrg2QKMPXigIOOa3I+ZApuuC4JJMOBZ0k47lkFWRdKDjgOfH2V+Hai6y/yBqWtPfRb3vIqFH4viYzvZf83AnS9JHiStSeRgizXoaOri5SyGXwJo9Dti9YBvC9sHhoHD+FV4Dx/gyZCR9XuUFl1gtteyKZoOGW/0jNDR+Eqi60U72wnm5h4NQ53njlVSb7h0hph2Qmx+D5C6QGJriueQUza5sZq3TwXcWmrVvZ/sBdVLe3gJMPFsJ8J2jOnBRDQ6O88NOdnO25GCzfabg4lKN3cJrV7VV0NFfjuD6OA91rVvCOd9zHqs6OqEOMWoOw1SDMAJMuhtfSvEjA6Dc6KtFOWKIhjyYXOVQOVBZHZXF0BqVzoHOgCzjaxwl3dkWlWN6mm/FojfbD3QBRm+qCcjFGs7FITWVxLo6SPDZA1cF+Kk4O0TgwR8NEAffyBKlTQ1QdGyJ1cpjqS1OkMsFoy9NpMl41+WIlvl9BwXfJeR7TeRjPOkxkXCayLtmCwi9qZnOK8azDeNZhLKOYzGpy/tWHGYub3cVL2QtbpZWDArRWeL5PZup18vMnKKePtLqCrzTa2IwTzTTRgdMehVwWb/IkKjMQTGZkrUNplJ+kWNCM9+fITvq40Yw0mAv4+CSSSRpv+UNqbvwgVHWinaqSJV3NAjkgEzYz42Mc/OY3mT5wmC1P/ipN77gbqtKQCl6mU6uhTDOdLXDg4CHSTpJtmzdSUVtFwfMoKoV2HLSCTBa++vWXefZHr/LeX3mMp566jZoaFwUkw+KR0hoZv5gGlhItdOlMpQZorXGiHaWFAsVCAa9YwPeCUuFoH6W8YJSiCiiVD1OaQ6k8jsqjCEq40sFvpQvBiCVa5JJcljF9kLFau+HXFy6+7+B7Dp4HRc/HL3rBQlW4v1F5/pJGVFeBbgRWAGuADeVcXJfmTJvLbJOD7nLRax38LoXXrtAVDigXf6ZA/9HzXDh1idmZHI6GdMKlynWoBqo1NCQ8Eq5HwfWpTmepc4vU+lDnQ6XWlBsGX6STjARDm9p7huR5YS+jE7pwZhc3IDCboOg5JGkWrxz62jcMblTHaFwumSD+sga+oIdS4RbamJJ+zfDDDcAsiIkmXpbYKLpfEJEtSzjpSJ2oR3UclOuiEgrteOGekiJQRFMAXUT5XuTwzd1Owc5Y00mb7mgXx0+gfDdsu8NUaY32gk1LEL4r1Q6OclFOAsdJ4CgXHAftWp24gWg7jFaoYrAcvWjjgIJcPs/lgSl6esY41zfBWEYxPlPk3KUpzpwZZXBgjnw2WHNXPjhaUebNU+1NkPIzOL5fKvolUNZuXTH2IieMysjioIQttFNSbaT0LnF++OLC4F9SK6y1l6CZscKENQVtTIauFQpa29pYu2YNVVVVi7ymp6f50Y9+xOc//9d8+ctf4cyZM5w8dYpvf+tbfOHv/56XXnopel8a1AjF6tWruO2222lvb8d1F3fqpq3s9Jp+cc9gdKTBaEGBo/F1kcz4TgozR0m7F0mqQfyojoYBpQMNneN75LMZvImzqMxQUOJ0WBQJ2vBiwWficp75CY2rg1VGgfYTJBNlNN3xb6m9+YOoqhX4qjJcyIz/ys2EVgofjVMMh2RR7VBkczmuXJlgfj7H1GSG13btIZV2uOnm7TQ2VFNdVUFDYx3pVCp6eeuF26bcYA8xKiyEoFBq8Rd75sxTSrf4CZ90pL7vl35HShQobJtjSrI4c/3E7DB/EShUMKkK3+ZEccRMqU0s1IpgkuVrH4/AJdMpOla0sX79KtauWU1tbS21tTWsXtXOhg2raW9vCQz+L4CZCaKv6RZ1pMLg+V7gPA/P0xT9Soo0U9D1FHQNBQJX1DUU/WqKfjUFv5qiV4NfrMXzail6tWT8Nmb1KubpYF63Mq+byehGMrqRLE3Mq3rmnGpmVQ1zTh1zTi1zbg1zbgOZZCu5RAO+rgxHMwuf4oiTxNnV1tHg6nATfyLcheCB6wdOES4mOUVQOXwK4btR4+sLJ5zs4aOUDifCwfNC4dThzHyhVIkupoFto4vuWuuFbXXBe0AHVFBKirNHodBL2unBoXchAh1U97DtWGhytIcu5GF2EJ2bROkiWnvhmyGN1i5eUTM/ocnO+vh5h4RK4bgK0ChdTmVTB+lNH4KmW/AS1fgqHcYVRCEd0bLQYacn4YLX+8F2CQVzM3kOHjxGIqHYvLmbmtqqRZ108BGDxlcOGhUMm62+JTD4QjMjBVeH3+Mu8CyUfLPfVPl8XpvrA4Q5Njs7heMqKsorw28urZwNuwAddqRF3wtGQIByHFzlgrG/JZpXaUU2m6NQyJFKJUml08H6SrhW4ztJtJMMZcunLEFgFY4Ergat9UJ8KmjbwznYVSFvsgLTS9+1ADGwqYtpeDf8XquU0ZWy5trCuEAI/gXMgZVFCDpofyNBoXPdRGRwHe5HD4VEYpUKDei60ZsXCI2jpYqLkReGXFFJiRkRmPA8j6IXvCS+Gu+1wrSNbSe7INj+Ns2xCZFRWdhthaMipx3Z2aSC4NoFEiiSODqJoxPhfm83+m5I46CVi68S+CqBRyIq0Vq5aOXgu0mKbho/XHhbeGG2kNGSwVdDUCiWJvyXASnFcYYVmHqaJVxosaMXEWqXOvEDonH3IgUse+ho1KEj4y15SxTKN2eohPEGcYv/4nDLGd/3wxcov2SIDtJZ2ra7Vh3V4OCgJobhakeP2JlwrVDhrthisRitPWMofK2leTl44eE7pu62nteiv/iJTqbRS3Xqy8kTqGw2G3sgw9zcHIlEgrKyMsRfW6cJYeWubaxShszlchSLRVKpVHTITikZcbATZofJh0ePLHeAT5zRTTlxdElHNpvFcRxSqVREk4Jk29KGliGj2UkRjV4WHyelwpz2wu10ZimScaiZ+1Ii4nr0bDaL53mUlZVFr8ziEimQztjUU3QRSOIJjQ6QTCYX6WNCeEVHO06MMBKvpCGXy4WbVZNRuGjiY9nShgoGHItzcbkApuLyW5vtv93GG7zLGdXGcvGUwtXivxqUsTBl22Q52LJ1zGzUNyZ1yOhFmOMUNmHmtggSZUU5U4adABt2nKZcDEOYssU/Ts84ui3bDl/KsHF0bawBmTSpidcKlcvlom+OBL7x+Ut5efkiBaRNz+VyDA0NMT09DQS7n1paWqipqQFgbGwMx3GoqalZ1G77vs/o6Cijo6M0NTXR2Ni4qAkwZc/Ozka06upqWlpaoj5GqWCbRhzyxslGorfwmhmoYt5jAszMzFAoFKiqqiJlrckopaLjpBKJxKKwcZluQuKMOlLb0/zmCKukKqU4ffo0X/3qV7ly5QqNjY1MT0/T0dHBE088wcqVK/nOd75DTU0Njz76KHV1dZFCZ86c4cc//jEXL16kpaWFJ554gm3btkXylVJcuHCBL37xi4yPj9PR0YHv+4yNjXHjjTfy7ne/m7a2tiWGMiFGlzZX4pZEC0y/oaEhDh48SHd3NxMTE1F87e3ti2QTyjdHXiLHjznfTGDq4P7Zn/3Zp1VYcpywg1RKRUO6dDodLcoLH8DIyAhjY2O8613v4td//dfZvn07Z8+epaqqiq6uLt566y3S6TQbNmwgnU5H8t98800mJia4/fbbmZ2dpbq6mjVr1izqmCcnJ7l48SKPPfYYv/mbv8n9999PQ0MDJ06coLm5ma6uLmZmZrhw4QITExOUlwd7GycmJpiamqK/v5+pqSkqKysjw4+MjHDu3Dnm5+epqKgglUoxNjbG0NAQw8PDHD9+nNdff51kMsnatWtZsWIFVVVVTE1NMTY2Rn9/P/l8PvrwLZvN0tfXx8TEBDMzM/i+H9lK0ir2kmexb4IS7VcpmCUsl8vR19dHXV0dfX19OI5DRUVFlOOmkzBr165l165dHD58mFtvvZXu7u5oBOOEw1Lhn5qa4sqVKyilov+JRILTp0/zwgsvMDs7Sz6fo2tlJ/fffz+vv/46hw4epra2jtnZOa7btJmHH3mYS5cu8dpru/B9j/n5ebZu3crtt9/Ol770JcbGxrjpppuYnZ1maPgyIyND7N+fxfd9Nm/ezLM/fpZsJktjYxPDwyM89NBDrF+/nueff56xsTHKyso4c+YM9913H4899hj19fWLbCmlW9IPBCVdCOJ0eHKEXUVFCGGb/dprr3H48GGOHj3K3r170Vpz44030tjYyJEjRygvL19S0o8ePcqRI0cYGRlh+/btdHV1kbAO3ZyamuLFF19k586dvP7663z/+99naGiIBx54gM2bN/Pyyy/j+z5PPfUU122+jkOHDpJwE4yPj9Pa2sZTT72XLVu2cvLkSTzP4+TJk2zatImnn36azs5Ojhw5QlVVFdPT09xwww285z3voXtDN2jNTTfdhO/7TE5N0tzSwuDgILfu2MH73verjI9PkMlkuHjxIplMhscff5wHHniAvr4+qqqqWL9+PZWVlVEpNw0t6XccZ+E4KTNHBGaO2TStNatXr+Z3fud3+Ku/+is+//nPs3btWg4dOsTo6OgiPsG+ffs4fPgwTzzxBE8//TSvvfYan/rUp3jllVeYn5+P+ABaW1v58Ic/zKc+9Sne+c53smrVKlasWEEymWRwcJA33niDz33uc/zt3/wtA/0DOI5DeXk5nZ2dVFdX09jYSCqVYmBggGKxSENDI6lUGY2NTSQSCebn50mn07S2tgZnT+pg2cFxHBx3wWg11dXRB1+u6+J5HleuXKGysjLYMl1ZSXt7+5LjceMgNl50hpdvnYYhTmie8TWdtjql8vJy0uk0+XyeYnHhizeMCcjExASe51FVVcVdd91FS0sLk5OTUQmQeAknNo2NjaxcuZKnnnoKpRQ///nPGRsbo62tjXe84x184hOf4JOf/CSPPvoozc3NZHNZRkZGyGQyTE1O4RU9mpubcRyHiYkJ8vkCk5OT0ZGzZg2emZkhmw0+b5Q3VgCy3TAymONQV1fH/Pw8mUyGbDbL2NgYuVwu4pP0ym/Txp7n4X7iE5+ImhcThUIBFbN+IcqMjo7y2muvcfDgQY4ePcpPf/pTBgYGuOuuu1i7di3Hjh0jnU7T3d0dfepeXV3NmTNn2L17N/v27SObzUZD0o6ODurq6iBsXk6cOEFHRwcrV64kmUySSqU4ePAg6XSatWvXcvToUfbt28eePXuYnZ2hu7ubvt4+9uzZy9mzZznw5gFaW1u45567cRzFnj1vsG/fXvbt20dnZydbt27l0qVLtLa20tXVhed57N27h+Gh4cj4ra2tDA0N0d7WRltbB2fOBGcgXHfddVy8eJEDBw5w8OBBDhw4QFdXFxs3blzUTIqtogyUZlzOBnDCYY4K1xFk7UWMIgH9cLw7MzPD4OAgs7OzkcBVq1bR2tpKoVDg0qVLJJNJWlpaon5BhaOinp4e5ufnWb16NQ0NDVHtEZ5cLsfw8DDVYdWWAtHX14fv+7S0tJBOp7l48SKFQp7OzhWUlZXx7W9/G9/XbNmylfb2dhoaGqK4r1y5wuDgIB0dHTQ3N0M4Akun08HuAaW5cmWE0SujKEfR1NhEZWUlw8PD1NXV0dDQyOXLg9GoTg5pzuVyvPjii2zYsIH77ruPysrFp2MsMbhpdLNEi9Fd4wRSs4pIYBltiGDJODGgGNPuWLLZLMViMVp7sTPUVNr+bcYX6BH8LhaLfPe736Wqqpo777wr/BRxofMyYcoRp4yNRuLvaz96USOv53zf5+jRo/zsZz+LJnaXLl3iwQcf5Kabblo0ZFwsf2EUt3QU/zYgiTefhWb72TDbb9OwAlNJwWJjL/ZzXIdt12+je8MGkskkOsxs2+DXgiie8G2WSfd9n7Vr13LPPfdAmNmPP/4427ZtW2Rwgalr9P9fUtJFSJzxhDcu8cGp0sFEQ6bZwi9ybKPGIeDREL5QCZ4VuVywyphKpaISZ4eT9IgzS3o8FDr8HKdYLJJMJkv2d7buJl0ptbD2Irmkw9FKqaO8JXGmYWzjLk3QAr8KmxfT6DavraxA9JPfwY/A6BG0Ip8PBgFxcwxTvtAgRo4FFR5Nro1D6035UmBsmPpK3ItWGW2YNPu3mRDzmWssqWY4O26bFserpSb5RF/nBd8tLcjxraGb+WzLCrYLBF/7mV/8Rc+SN0bt9q0htim7FLQOX2KomObFfokhsJsXicQ3XlZgKOXbR3zHlHSTn5iXFeJn0sVPZJqQMbP5kgGro7bpcbQ4Xh2+xJBVRpsfK4zor4y2Ptoq/cuAmcMit5QrxRMX3nyWDDSfbRl2GPvZDFMKpfwkvPkcF0ccJAPedtduCjVLml0Kf5kQZeOcWcJM3jjYBjPp5m87HaZhlzOuaQfT2bQlay+icJzykkihS6Q23ZZ1LbS4uOLoJpaLL46uYzLJhG1EG3FxmLDlC7/Z1mutUTMzM7G7Aebn53HCRSQRIP/tUi2C7bbYbBcFKnzzYl+5I/xmiTAV1dYEQ8LY8gnHzoQnHZn62LzyW+I1UYpfGxeRmG266Ch8whtrgytXrmibqMNhkQrXr20/gZmg5Yxi8hIaxfM8EtY9RHG8pl8c3aZRomMkRo6pv43leE2jC11Kc6k4MTItdu3Fj9mCIYHt0ih+EqFjTEZ8Y/Ri8mezWXK5XPTGx5ShrZpk0k0Zoqf8NhE3etExNcmkl6q9Nr8K14Zc60Yv0+jibN3FNosOrTcjtJ0Nk9+E8JYKJ4gLH8cvujm/4JTehJ1WU3YcTH47nMkj/+2Mi9NdKetcRvO/CVOQwOQzDWwnSBBHl9+ms/n/NfCLyrbD2emwYdtS+KLRiwm7tMY9l6LZzpRp023ack6aquXkXQ2mLJt+NUg4O15TpsxOzd8mTfiWvDmyBZsRmgFtJczfEiZOti3fli1hTWVtP/vZjsPmNWlx9DgZpp9JM6f9nvWRrqlbnBO+Reenm86sMqa//Db/27/j+N1lLmSy4xV+eTZhxiXPcTLi9C4lw6bbfiZdhqFxcV7NCV98DxJCmG3Y9Dgeyd3lnm2YpQLLoHFxmAmKo9u0KNFGp2bS7TQtJz+OR2TZzgznOCU+3iXGSHG4mv9ysOMTWpwuV4OdcKHZJdAO83ZhhikVPk4XG4tKuq20HSiOJrD9Sj3b9P+n8C8pIIKr1dRrgbbPezFLt/1s0uJg8pfi4Soy3i7idDVpZqdmh4ujXyvMOMz/8ruUXKE75gNWtSkV2B4NEFPd7MjtZ5N2rfQ4xPHZNF1ixGPzx8mJ47H548IKPQ5Rm25CLdN5mfh/q6mwoWOGjOJsY/+iWC6ty/mZEH2WtOnXguUiKUX/14DEJYUkbvhm0kphOT8TcXKFztvI1GWHjKVQqjrxNiL+RWAm2ja47ReXAXaYONlXw3I8tl/cczRkjGNYDteq4C8bZrNhZm4c3W5asNL4ixaOq4UrZRuTFn3oZSfEhO1nP/8/DTGoOfW2nZ0Ry+ksfnYmmf6l5Iq/zW/DpC1ae4kTaNLtTikuTFyEv0zYcZSKz9bT1NVemLL1N/ntsH64WCZhzbWXUnQzLl86Uh3z1kdQqhMy+UuFXQ7B2VsLh3pogtPA5Eyu8CQwtOxFCfe3Re1izNTdhKmbY639yH/zt50eoZlxxYU15UpYk2a6iGYKNp0oIc6m288m7Zpx1a1sAeSMAFsnO15TJyzjCeywJq9tQJPfTCvLfK5py4zDIguZVcwOYAu2IbRS1d1GeKovwW7Y4CRnVwWn/btak8AngYerNG54IoYt20zgcojji9PXll+KxjL0a0HJYmkLtZUTJ8/S7v1rQRnDPDPua8FyvJIhcTXCLt38AnGLHNFdqfDNkQ3TqOLiOhTzOU7OtUCHt5gHoR185eKpBEXtBi46HRKKSpoaPzxRaUGHq8HmMZ/j9Ddptp/ATnscn+kvmaempqYiTjNHs9ksSqloV60y3m5L7sdV0WtBsVhEo1COS7TV2ffJzM8zOjbBzOx8cD4jCsd1qK6uor6hlsrqClIJN7yIUAV3EsU0LzKSuNb+xTaKSY+jmTaw0x7Hb9NVLpfT0oEIvHADqRvuTxfosIRLlRFBUtrs6hgNkRwHJed9aUUmmyNf9EiXlzOnk5zrn2TnyTzHejPMZD20SuCF11cKWior2Li6kjs2JLiuDWqSHo7v4WhIOAubirBOwbD1Mau6pEd0NNMkQz5zdCNhstksiUQi+vhA6GZmCOIKgCoUCtpURBjfjtGXi9A2usYhk82TzReYmZvjrdOXOXTiEpfmG5l1Wiiq1BKja61JewXSaFZXDbBjUy23bl1Fa12apBOcw24iH573kghvG1PGvnvRXWCmyc4gP9yJbNcY2bUrBVXSbxY8ocdh4Shvq+TOzs7ihF9AC0RBO5NEuISXREoNCOQHvL52mM/keK3X5dXjk1y6PE2moKhNztHRWM6GzkpWtVVTU5FC6SKzczkGB0c40zvL0HiOMa+RQqqJG9dUcM/Naba1KWqd8FzfUJ9fltHFiP8So4szZUeH7JjMZvMiX9eJkLiSvti4i2vMQoSgVGD0i5f6+NbroxwZhIIqp7VjBbddX8OWNdBcAelwWCUtvg+MTMPp80VeP5nj/HCGysIAm9c08MQdLWxoc0mohYUk2+hxugtKGd2spY7x+byO2Z9eyuimH2ahlM9fzBz1PI+ZmRlc16WysjISgNVG2ZkhNDszHMcJjKc1F8cVP919htfPe0ypRu5ZXeTdt9Wyqq2aJMY5juGcVOPgawWOh8bj7GCRnftOceCiw7TXzN1bG3jg1grW1mkqfQCfYjG4ttI13tyX0l2MaxpdhVv2/JhTmQhLuhtuq7NtYMowaYRGVzJklAjsXJGA4oTHjMQMa8pYyueRzWU5feYSA/0jKGDjxlruuruT1rZqCDMlOmXOkCMyADo6yrn99q2sWbUax1H0nD1DT88wmUwUbFG4q+kuNIHNa9vG5Ld5hRbHZzpHSrhZKqIcsdYXpFOJo5v+El6glMJzkgyOz/PWgOJEbhWrW8t47+Y8WxugLrydK60h4SgcF1TCRbtJlHJxtUNCK1JAvdJc35rgoW1lbGkaZSbvsn+gkoEZRcFVqMRC/FIabf3s51JpNfnN/6Z9zFpDWIvssLY8Rxj/9aEZHBxkYmKcVDrNylUraGmqJeGAExyHGyQGmJ6eob9/mL7eYaanM/jBZVuhv0Iph/Xry1i7rp50OsXISJapqUK4qLAAO/NLYTk+odv+EsamXw1KhZuNpCrYVe3twq5SJmY8xaVpn9F5j3RVBZ0NDh2pImXhBSd+ODOdVbD7TB9/8Xwvn3wpz84BxaSCvHLx/AS66JPwizSgub6pQEONx0Quy7nRApfnIWtV7X8p4pqLa0Epfi1bMEToL5Jrcc9xJWBiIs/4RAbf92moV1RXBcMZUzWtNb7x0UAh/C+lXMqx1sFZvw0N9dTU1OKH54LNzs1FsiT+uMTbRrQNK7+lH7lWmGm2029i0TdHdodRihbnF/fbxHgmwZVcHVo7NJQXqUwGdyDhBTd84QXfcjoEx2l7uoK8X4vWCRy9cHR4cOuSi9JQm05RXaFIJnLMZ4rM5ILOOJDrBy68KUwOWxYdiTG+0OxnO5zQS9Fsm0lnLJlYsjG3A8UJX+63jeAA+iJaa1wHlNJ4Hly61MvevXt48623GB0bC87ijUl8sLQLsq6utUYpSCSCAUChUAgnNAthgvOAfewvoU1DxBnG9ns7kDD2WyOTvuhLjLgqEUc3aXH+cUhoRUoHd0ygg2vXkjrPzv5y/sdbdXzzcIqjk4o5FNoPbszzlIOrFK4fvklyHDzHJY9D0XUpJMrQOoXjueCm8RIu2nXAdYLTr8OJlU/UMoF0ZtZLD/M5jn6t6TTtYoeNaISjlzjPRYxWxCavGaHw2ZAZnOs4FPKKYmGhzV0oUTGlSikcRzExMc6evXt5/ic/5cCbh5iamiYXfrvkez6pdIpkIhHe0bRY51L/49JiOtsmi9VaSpdne2gZDRXF2cL+tdDaDC31cxTcIv2zLmNZh5xyKeoUWpdRJEUeB18jN9iR0H54Jyr05hp46VIN3zzRyvf713ExW8PEbIbJ6Ty+TtNW49JapkmEd+T5ePgqvLgoKOuxsA23HExDxzmzwC0nc9GMVCA0sxQuLpELba78N8Pa0FpTXqZpbKiiLF3G5OQMU9OzeOEBxYGCpZWEwPCSMDcRXHUxNDzM5OQk6XSajo56qmvKoruXYmuNAVN/u/0202DSTcTRTJTy1zo8OE0eSnWYcR2CX+J7GjsDBRUauuvL6ahIo+bynBn0OJNJUFOfoL18jjI1jxvaPriRy0cFl5aidXjTlu/TmJhgS/M8U3Ow/1KCsTmfpsY0LdVJarQmGZ1aETZfKDytgiUGQ0+M9Nm6m89xfnYYeZY1eNMuJk3oiyZH/9pobWulfUUHqVSSvt5ezp4dpb2tmk0b26isWLywZkNrSKfL2Lp1E11drVy42MvAwDCO69LV5dLYEFbxa2gubIPFwTSu+XwtsMPafo4Ts6YgMNsqcUJf1DHEjABMKKVIOZrmmgR3rUlyU/UQs1nFT06lOD9Q5KbNjdx/Uw2raxWVDjj4pP0cFf4sKbK4+LRWFnjoxhZu2lRHf+8V3urR9HlrWNXRyB2rHZorFo9/ldKBCy9ClAtNRJ9SuptpjuO7GiS86Uy641h7GU2hdkAzkO1vwoxkKV2zcmU5N96whsbGJmZnZtm77wDHj/fQ3NJEU1MdWkNVVTVNzU3BIZSpNEpBTU2Sqqo0J06OcPhQD9PT02itqa6uRlPG/HxQcp1o9grB6H6pHqZx456XS+tyTjJn0eKWtUHJcZzFb44Efsxn6hjVMo7fj3mjZNN938dDMTM3y65D0+w/doULmVqmEw10NWm2dFewdWWahnIIh/MATE1p3urTvHVumMnJAtpPonQRpT28RBmeStJQW8H1W8p4cqNiZaqAwiGRcHHc4OIiuVYZq0BImsTwpeimX9xn6tKcmJlgNzGRn210FS7gz8zMXNXooog2rm0QOcJrGl2pYMIyn80yMONyph9+frrIqeEcicJlypwZmtPz1Jd5pFIKhU826zA3V2DIq2PWrUVRSWdnM82N5fT3jjM4nqOoXVxdoKI8xVPXZbh/YxkNDQ2kkglUeM+8aXS7YITt7BKji8FMfq5idAzjCs3ODJXJZLTJKAKu5eC0OLqJUvy5XI58oUgylWJo2uet4+c40DPPlfk086qavCqnqIKb5RK6iKt9ypJ5mhsquH1VGbdtrMNLVvDSzw/y2rkEE7oFHTYrdWWwbVM179xSzppaSFEk6QTVxr4OjVBHYppD8TPpYshisbikVsfxC00gfmpqamrJTQE63GbgOM6iY0zFz86gUsYtRc/n8+QLHolkkmKqkhxJBubg/Aj0jsLoNGS94CVpZQoa66C9GVoaYVUK6oDZIvz8jeO8esph3G8Kr/6DtM5QlVI8sN7nnq2NNNWmSDnFhTvtLENQwuClUCpNbweqWCxqYqqcNC/mO1JtNC+udfuL3bwI3W7rlVJkMhnyuTzlcnCaJhhLs3DHnCPX42nwfUAVQYXvIFEUtMOxk+f5zps5To2XkyeBpxdO7q9NFdlxQz3vub6a1dXhu1dPB3uBnQVDm0Y0dY8toeH/5ZoXOyNsOUpZp2DYJWA5CL+EsRNhy7NpjgrHFSGLCncLKBW8SRLFjPsCI4MrpXBcxfr167jp5s00N9cGt8EbOmQyGQ4dGmT//rOMj08F4Z1gx5gb82pSwpn/TZjGNMPEwZZtxxMZPU6QbTgbprKm8e1ITF6BT/C2SBN2dMrHUT4uPgk0rgouz004moTrhRcSJlChcRNaU5nweGSdz69vG2NL/SgVTJJQwe6uvFvNWLGaH51x+dppOD8LHmEGhh2qDdHR1t2EjpmJms70k9/2zH3RBtJSERGjyHK8bxdayw15xrOUutBQkggzMQCptGLTpm5uueUGWloaccNRiMjIZbMcPdLH4UPnmZ6eDfxEsGFE83+cEU2jmTrazkyDCZNn0ZU7pkBz9CIGjgJZ/OJnZ4r4m+GRjjQ8VVoOTlu4MHRhsUrCSWIXZ7Qi2Nvuo/GZKSY4evoCzx3Kcm4sRUaXUyAld8BSlyxy89Y6Hr+hklU1wQqmG57R61t7U7DSatPl6gqzTRe/xTrGY9GYR4xp0+S/OZa1n23+UlgIb/vElx7T4IudE1zbGepRllbccP16brttK83NdZFuckN7JpPh6NERjp8YZG4u3CRjYWkciw1u/r5aOgWSDhNLJke8jRmpMqqxSRcjSZWU0YvQs9ksuUKedHqhpCttTdmVDjedLmTAokwOVxGBYBUyVD8DHDzWww8O5Dk3Vsa8qiCv0rg6WLW8a6Xmibtq2NiRptwYYYmRxQ5mZpsjL5YZvZhyTLog8CtxIIOdM6UQx7ecDFFsOShjFBM8L01A8F/uNg15w2uKlYL169dzyy2baWquRjkL4YN7NuqpqiyLstcsQGZccbBtZDuTx/wtGah1UOtiz/AyA5Tys59tWhzMBMoXR8FYXAdve3QRX/tBxxnexC2lf4lxFOEtAebLFyjTmlqV5aHVBT5y/Qzb6/pp9c9T7/RyXZfPbRsSrKoMdpPJToHgMu94XC0jrhULNnIWblM3q65vrb0IXcessQjdbl7MiOzmRQ6tT6fTJIzrGQI4BB1kYG4V3u4uclS0E0DOZVRh9gVQSpPL58jhUvCT7O2Do7050lUO67qT3FIHLQqCu9J1dNuvCmZMkRwpnWZaRc+8cTeeQNJq15gFY4cFByd+9OIbl8Be69qLCDVRip7L5fA8b9ElsMthuXht2To8IVSFs2Zfu2jtBAtfjsZVDq5yCPYRB0b3fT+4M9tYFo6LU9IjoxdzVn6t8JW7dAuG6Yga/+WdWUtsP9NhJEZbHaPIMWkmRIYkvBRsPtd1SCYd3IRj3NxuItTPaPtLwU7PL+ScmKVdlhm92KMRgS7RvNhVVOhZ6/YXgTKaDpErNAkryot80Ufovg6aFzQkE4mFZiP8MMxRPo5SkbED2X7AE8owC4ZpG/GT5sWspSa/CdEb0V0aQ9NjOZgJXg5xPKL87t27eeaZZ+jv749GMqZRe3t72blzJ/39/ZEcpRTDw8O88MIL9PT0RDIHBgZ45ZVXOH/+fJTghTDhfh7XCZoNWe+R8f3bhKmL+f8XgcMyAkxjmLlvZ1IczYQOa0J/fz979uzh+eef5+zZs2BsdJLSNDk5yZkzZxgfH18UfmxsLLpoUOKampri2LFj0YWzAL7v4fl+sLNLJrlaL1w0olTYhQZdaZAdC/HEFQSh2zTbXQu0tva92JGUisj8bUZmP5vQWnPq1Clqa2vZsmULY2NjjI6OorVmZGSEf/qnf+Kzn/0s3//+9xkZGbGDL4KtH+ENYy+++CJ/+dnP8rnPfY79+/eTzWSZnJjkueef59Of/v/yN3/7t5w+fYaCdbceBBtPTd2lINpptu1Uyt90oqvnBQUiunnXrDb+Mp80aquds+mmEwUcx6FYLPKNb3wjurZ479693Hbbbdx44418//vfZ2JightuuIGDBw9y5coVfuVXfoUbb7wx6guOHzvOF/7uC/RdHqCuoQHXgUI+S2VFOb/2oV/jYm8fvb19vOc972F0dJRdu3Zx1113cfnyZcbGxnjsscc4deoUMzMzPPDAA3R0dCwylt1siO52K6CNr/Ts0Uspfhvupz71qU+LEaVDwhiLplKpyIgCk9f0s2UIlFKcO3eOPXv2kEwmKSsrY+/evbiuS2trK6dPn2bjxo3cfffdlJWVkc1mqaqq4vTp0/zsZz9jeHiYfD7P4OVBbr7lZt717ndz646baW5pYn4+Q3tbO4ODQ6zv7mb79u00Nzdz/vx5MpkMly9fZtu2bdxwww2sXr2aNWvWUFdXt6QDl/92muJovvXedzn+OLfo6BHbU/zMLQUm3Q5DjOF1+E7x0KFDDA0N0dPTw549e5iZmeH8+fNcvHgxuoTPdV3q6+ujWx1rampoalrYilFTU8vWrdu4887bue2229i2dRsN9fU4jsJ1g8lKwvp21ExDMpkkEX4RZ6fDLiymn+gm6y1xdFOGbS9BFOaTn/zkp4UgkRFOAFzXXXKbuMA09HLNDuEtvW+88QY33XQTH/vYx7jnnnvo7u6mp6cnar7Gx8dxXZc33niDixcvcv3113PzzTezceNGVqxYwcz0DGfPnGXl6pWsXLkSBVwZGeH8uXOsWrkS39f09fWTSCS4ePEiZ86cYcuWLWituXLlCul0mjfffJMjR47Q2NgYXcNZCpImYgYa0ryYaRWYdjH/m/SoeTEZfN+PHYtiGNKO0JRhPw8NDZHL5di0aRPt7e14nkdZWRm5XI7KykpuuOEGRkdH2b17N9lsllWrVrFp0ybq6+sjedlcltn5WTo7V9Da0oJCMTs7RyabY/WatWy7/nomJibYtWsXvb293Hnnndx+++1s2bKF4eFhXnnlFWZnZ3nwwQdZt25dJHc548a10VzF6DZEvtm2L7oTQyKQjtSeHOmYSZAyJhNiaDMC6bkljBPeRJ7P50kmk6TTaRzr1l2sTBMZrvEhrRmnGUZbkxdldOjCY8sXPzGiyBa9bV5pBdyYjpSYzLOhJicndZzi2XALht282AnFCCP/hc9UwkyQfKoibawpI27UIHKELw4m3bxyx4TItY1IjFzRP45uFqJfBCqXy0VnA0hE9pDRVLBUhGapsA1v1iLCBa9CoRAteJlGtSHyTIPJ7ziDqfAeJRWeDUBMppn8cTKEbsZp0uJK+nJyBOIXe2GgH64yitEF2pixmVVdqr9tXCm1kqmCbDa76HIpM1G2QezEB+skwZd4OvxQwE5o3jjvRQqTwOY1a5akx/STdAp02Hy5MW+OTMOLLFN/sUFkCTOyuGcbXnhow+joKHNzc0v4fd9nenqa8fHxyAiEVX9ubi6imQk1E6fCL+YmJyeZnp6mUChEyqOBcG3FNuLVUCgUlsRvx2u65ejL0czfpp5Kvc1VRh2W6vn5eV577TV+9rOfMTExQXV1NQ8++CD33HMP1dXV9PX18dJLL3H06FEymQxdXV08+uijXH/99QwNDfHjH/+Y6667jrvvvptUKhWVNtMdP36MF1/8Kb2X+kE5bN68kYcffger1qzGcd3wrEYHWUkxDSQGlTG5qX9vby+HDx/muk0b2dDdHazR+EubQIxJkNClcFztHSlGAZKWQWhKKdw//dM//bQEEujwTBNCxcUQYpyDBw/y1ltvcccdd/DBD36Q2tpajhw5QlVVFUopvve97+G6Lu9///t5+OGH8X2fPXv2RM3JW2+9RVNTUzR0E/mi2OHDh3n++edYv349H/61j3DrrbfR03OWEyeP09zSQm1tLV4xSIzve2hjkUopFdU813UjmgprDkBDQwNNTY2UpdNoDYVi8H2raWCzabRR6u2ZmYY4RBlivjnCyLHl1l727t3Lvn37uPHGG9mxYwcqXHqtrq7mwIEDnD9/noceeogNGzYAkMlk+PrXv04ymeS6665j586dbN26lXe84x1LOtJischXvvIVkqkE73rXYzQ1tqC1orf3At/5zrfZvHUrbsIlly1w6623oX2PV15+mc2bN9PW1sZPfvITjh8/juM43H333dxzz1289NJLHD5yjKrqGtauXkkxn+OWW27BdV1+8sKLXLx0icrKSh555BE2b97M7t27OXDgANPT02zatInHHnuMzs7OSM9Su3avBUqpxWsv5n9zRiqZIq6pqYm5uTlefPFFfvrTn3L+/HkaGxtpb2/nzTffpK2tjVtuuSWqfmVlZVy+fJmZmRkqKysZGhqivb2d9evXRx2V/Hcch4MHD9LU2MjWLVtIp8pQKOrqajl56iSpdIp8Pk8+X6CrayW+53Hi+HFqa2s5fvw4vu/zK7/yK2zevJmjR4+ilOLCxQs0NDTx/vd/gLraGi5euEBVVRUHDhygqamZD3/kI9TU1HDq1Cnm5uY4ffo0t956K08++SSO41BfX099fT1uOLUnHEgkYo41cWKWByRdEc3OBXEiYBFzGGEqleKRRx7h05/+NL/3e79HU1MTzzzzDLt27cJxHCYmJpiamooi9Dyv5K4oMbjEJfFHVTX8ViibzZLP5fE9j2DYQvgyIuDP5XJcuHCBnTt38oUvfIGvf/3rnD59mrmZWVJukhUrVlBbW4sbxjM+Ps6ZM2f4yQsv8D/+6vM888z3OHv2LJWVlbS1tfH973+fv/7rv2Zqaiqq7WIX007ilvM3bek4DossIO2fTbPx6quvksvluOuuu9i6dSurVq1ibm6O6elpWlpaOH78OBcvXqSyspJTp04xOTnJyZMn6e7upq6uDhWOocXY0qRJO1pbW8vg4GWGhoYoL6/kzJkehoYGmJycZPstNzM5OcnkRPDNUbFYjDK0traWe++9l4ceegjf97l06RLtbS2MjAxGryokNRUVFXR0rODRdz7O/fc/QF/fJQaHBmlubqatrY3bbruNubk5fvCDH+C6Lg8//DBlZWVgdI5SCDGaZTG6STfbesdxljYvwihjUXtpV2vN/Pw8r776Km+99Rajo6O88cYbDA4Osn37dm655RaGh4cj2oEDB/ja176G53k8/PDD1NbWsn//fsbHx5mbm+PixYvMz89TWVkZjasbGho4fvw4b711gJGRMV555RW+//1nWLmqi3vvvZei53H0yDGmpqY4e/YsFy6cZ9OmTTQ2NnLu3DlmZ2c5ffo0PT09dLR3MDI8QmVVFatWr2F2Zob+vl5Wr16N9n3OnDnD6Ng4e/e+wdTEGLW1teza9RojIyN4nsfIyAjr1q1j9erV0WhIOlLXOiPM/m9DeKNVRtNDjC4lUiC51tzcTHd3N57n0d/fT21tLQ899BDbtm2jsrKSdevW0draysjICOl0mgcffJCmpiYKhQJNTU0opRgZGYmc4zi0trZSXl6O1pqamhquu24TZWVlDA9foaNjBffffx9KQTKVYvOWLVRWVnNlZJQVK9q5fts2uru72bhxI7W1tfT3B6uNDz74IJuv20Q6laSlrY2GxiZcpaioqKCzq5OtW7eSSKbo7e2jva2V++67l/XrN9DW3s7o6ChjY2Ps2LGD66+/ftENxN6iL70XbCNDRrOAmi2F2LbkZqNSu3ZFsDQLpmCpbjpspqTJMJVTxmYjc9euKCRyzGeJN4jLx3HUkhfMpo65XA7HWDeS5kD4tNY4KnhD6odfU5vGkjA6ZrORNr45kpJuxmG3GEI35f9CkyOusT0TxSVC8cuGWzDS6fSim3fjErpUDkRTUuOlshmvGF0yVIy1SBetCfZDBu9HTd2VtfnVlK2tZQBlTfdto5vxSppiRy82bKOZzyJMIrOd8Nv+phzz93KyArqDUm70RYYpQ2A+x/EoJd/YuCjL2GZmm/xXczZf3LOg5BX2JuL8Sv0uhavxiL+tix0vhlF9406LuMT9v4nldFmarQbshIuzE1gqR0v52bRSv+OwnB+Gf5zMUrJtujJq3NuBXThKoWRHKm262WuXMrr4C8Tf5Df9crlc1KabywDy3wwvdFtOXHwSxmzTTT1sGaacOLqZVlMXcz3dTufV5CDNi3hK51GKdjVnR3Q1J7Lj5Jt+pr/9bDtbhzhe0z/udynYcQjN9redjWVHL/aQURJgVz0Rbue0GMisRSr8/KVQKFAWfrwr4f2rDLtsuh2vlDpzjmHqJLwmbBml6GI8kX8toxeskZfYzBFB1wJbYfu5FE1wNb84/1L0a4WEFaNIBpoQP2KaKpNuwtTL/L8cnzwval7iYCoRF5H9W56X4zd5bL+4sMvB5JMSVQpxaTQNaz5LCY3jsWm233LQQW1YGO++HZSK1Fa0lELLhS8VZjnEpcHMVNtPoKx1pziahF/OmYijCZRSqPn5+dhTMObn53Fdl7KysshPDGJGZhrXlGP6meFV+La+WCwu2Q1gyojLCDshcTSsLRiOtVxhpxUj023d/RKfKNrLACJbwprpjaOrycnJJcVKG52RrDIK3VTcpJdSMM4wsgVD1l5EsTheG2acNk3oZscr/qV0ISZe4Zc0ScYJr20DoUlYU8c4+lVHL6X2vbgxl3CYcoRXRi+m/LjRi8SrY0ZHJr1UgkzkcjmUUku2d4iOAtNgplFsfuET+i9l9CKwI7bp4mcrbisbR7chfsJv0u2EmDz287ViOVliGNsvjr4c7DTrmMzENLrtsRxMZWxHTALjEmAnxA5rQ2SYz3G/S8FOvP0stOX8f1mIjG4byoTtZytTKpzATIAd1n5+O7DjjXu2YRtTxYxebEiY5VwpfhtKqWALBjHr43EHpxGWchEm/yWxdkQmXaCMtRf74904I2HRbfk2jXAXlzJ2GAjidDEzyuYtlaZCoUDC+PhA6LaMUvTo493loKz1cJNu/o57Fiedo8nnxB0UGVOKhH85+XF8Nt0OW4pmyywlR3S2M9dEXLhlRy+l3hwJvzKGVtoYdUgJMUcvZsT26MWUb5dGllnDiasBepmPa03dTXqpEi1xmmnS4SqmOXqx5dv6m9DaOHokDqKQ/C5FMxFHuxaI0qXCl0qI6GPqZdJLQYwjhlyONw62PZYbXNj6LWt0M9fM/6UMILD9TQXjUIpuw9ZFYCao1G8bpeiCOGOVgrKa36u5RaMXG1Kt4/xtpeISa9Pi/Gy5cRBlbd5S4bVVa0rFZdPsZxPi5xnX1cehVHgTsUeP6HDtxXGcRWsv4ie8tiGEz/ST36aMuDbdTLDwmvJEjsCWL9Dh6EIZ6+m2DJvflmHLNvXxw4/gEsYtjcIvbfrVEF2NaTL7xjJAnNGxqnicgtL5yJdoJr85ZDTXdqR0Cr9Nt/WUhJp0HXZ0KlwGkE4zjtekY2W20O2RiezLTIQ375r8sgnpalh29GKuvYixRUFRXgwuCRI5KiwV5l5ukWEveJnxitFtfcToIhurKps0e/RiGtGWbdLtzDB1kd/6KqMXYuY8AuF92x2pSTedZILJ9y+BqWwpSELFQGYY3+qPxC/utx1W/EzZtp8tQ3ivBUuWAczfcRHG+dthTZ6rYTmeUn5x9GvNbLNkLge7UP0yERn9X0O4iasl8u3i7crTy5RGMyPiCo1Nu9qzXcOk1gk9dvTihx9zJRKJaE+2KSQug4R+LTDfHMkIYDmIXqZ80dfWR1ujl7cjw4TQzb5L6Oa+FzuMrYsZr9AXnYIhgqTHFj+THscrisXRJUIJtyjyGH7xj3PCb3ZUtr8dh+kvMPnkv81ry7Dl2vz2s5k2mx5do2Z6lBJUypXiM5WzExnnbH7T2XGZ9FIQHrtgxMk1aaX4TSPachyrgJnpMmUpZZ4i+UuCHZlEZPrF8ctvM4wty6aZMmx/08+Ox3yOoy0HM5wdpxheIM2LuGhIuYgrBmagUs823YzE7LzMcAJblhnGlmXy2TLsMKaf/LfppWhXwy+SOWZhWrTZyI7Qzk1bmPlslug42LKvFaVkmvLi9DFhx20/24jzX44mtpOMtwuAOXrRWi9swTAV1SWOHpFI7ESJn00vxV8sFvF9P3r7Ijwmf6nfgjgjCGQ6Lu0vhmHsTBGj2HSMt2SONSM1P/Qy9TBtYMYriPzMo0cEctiC/RLDD6f19ghC/GzF/ZglAyXnp+dylJeXR1f6qBIvPcQownMtkGUAc0GKUB+7RppxmmmSUmnzEy7YJcJPMqPSaxl7OThmSSvlRCFzaGcO9YRH/ExnyonjlbgNhZaEM59t+Vdz9khkubSasJ9NmHJM2XHpj3W2wKthOWWWQ6lwQrcTbhvD9v9FIE2M1Jy3g19G/AKHGIOYOYihrOkvdJtWCnbbZz7H0eRZaLZ/KZiGXY6/lJ+ZyWIDuzDI/7g0C305t+TY1+WczUNMIs3fJnTYAcXRbXmmrKtB+M002P6l4jD5hWbraIePswFGf3ctbsnRIxKR7HuRtRdlrEmbtUD4dYnRi9BNP1lPl2+OMOT/MmB2pKbcUjpi1VT5bfNLOkz5ZkZcK1ShUNCEwysJ6FufvwjEiNIh2HRTWZseZ3Rz165pHJu/lJxSMD9/ET1FBlYTISXeLkgSxuQX2KMj0+hxcmws6kglUbYze16TLmHssOYoR8Kbox0xhOlnyrbjM3nj4jNdHGw/+9lEKb84uq3LtSK2IxVcTZgd6dX4TdgGjIPWOrj/KDzl3/d9gtteFpxcJILcGFPyHpe3Dym9JpbTOY4Wh7c9ZKSEMteKuKYiTp7QtCY6pEUpFd3Y6HkehWJwgp3ZdAjMZ9t/QfZSnmtxcTLfDhYd+yr4l7TpZkko1V5mS9yJEZTkhZqjtcaniKeDG2GV4zIzOcWhtw5y8MBBJsbGaWlrYsett7Bp8/VU19aRcCGfy6G1jt0NYOohv226QNJk08zPX2w/mz8OsaMX2+hiANvoZq4T0xzFZQZy3XF4z5H9tYTIicIrHx8PjUNvbz//+A9f4nv//AzDl4eCS10TsHJVF7/2kY/x9Ad/jc7Odgr54KQ9mQELbPlRHDE6xvEKCstcuSPhlsNVt2DEfaYuEZpGF8VtOVLSzRJnlvS4LRhSMwL5Pr5fRHvwwnMv8Dd//v9jfqyXe7Z30dVSw/nBUV7ff5FcVTu/95/+hPe+973Rocl2hkqJNg1cii5+xGSS+fmL0EwbXA1LjvLGEmwrTqiEGEb8hGbCVMTklVVGs/oLP0aNUUqFFwFqCvki2fkslYks27d2c8u2TazubKNrzXoSaTh2rpeiU862bdtoaGhAGQey2YYw9RcdzfSIM3UXf8dxokU/Kem23nGyTBe9rjMDiTNhC/tlQJSV36YTKN/F8VMcPXSYr33l/2Zq+AxrWnxakmM0FAboYpi7VyRYWakZ7T3L1NjC7TAi9xfBLxJOdJcaXsotunm3VMJ/WbBllspwLF1AcfnyZV7b/TqHjxxhZmYmpC+WZ8snpiBJ4TH97cJk85t6Xg0ib1lnBzJh55C0ueZvO3dLZpzvg++B76G0D3JnnMVvh9VK41GkuaOTpo4uzg5PcLh/jNGiYi6RZriYZt+lSfpnCrSs7qa2qSUIZ+jlWXc8m+sgZtqEViwWY/2Fx06vxCf/7TC2cz/5yU9+2k6s7/vRmSlmZxHYbmFYZ4cTmHJ02D8MDg7S03OGoaHBYMjluiSTC5tHTdglTGtNeXk5IyNXOHrgKH0XzsL8EHMTw+x98yg7d1+kWNbGez/0IW679baorTVnv6Z+peIsBdO4GG+mzDBxdhC62EygisXikiGjF745SiaTsR/vYi3kS2SLlVD4vmZyaowXXvgJ3/z6tzl69ASu67J9+3Z+7cMf5MEH7190IYittFRHz/PI5XJ897vf5bOf/SynTp0inVAkXFAKvKJP96at/OdP/Cnvete7ouYilUrhGIdtimxpAmwDmbB1wSgMZoF0wqslTLtI/LYMCb/kDC+bQSD+dq7b/ibyuRyvvPwKf/d//V8cOXqU9vY26urq2LlzJ//zf/5PDh8+TD6fXyRTh5lnjgyUUpw4cYJnn32WgYEBHMehuqaGBx54gD/8wz/k1z70NJn5OX70ox9x6tQpisXiooJSCiaPxGO7twOxj6QnzmZa66ufQGoOGQWmQmaYRco6MHJlmG9/8zscO3KCm3/l/Tz6B/+OzQ89wDA+Z08cZ2VzE1u2bFlSm0Su6HT58mW+/OUv8+qrr9LU1EQikeCGG7fzJ//HJ3n6Qx9h4+ZtXB4KbnhJpVJs2LAhOFfXejEdp7/5bNNtiL9n3P6irBJtNmniZ4blWtZeTCVsAaUUB3BQ5LJZxifGqaioYPXq1dTV1dHS3MzaNWvxfZ+jR49GV5tpY6ZryslkMrz00ku8/PLLrFmzhltvvZWmpia6u7tpaWnBdV3Wr1/PBz7wATZs2MCPf/xjXn75ZaamppY0KbaOAtNoJuJ4rwazqbFlSjyxh9b7YUeqrMs8pDcnJjPMziUQDvNzGd566y1Onj5FdXMjnV2dZCcmOLD7NS4eOcLZY8fYs2cPJ06cYHJyMloWkKYll8uxZ88evvjFLzIxMcH73vc+cuHp0ffeey87duwgnU6jtaaxsRHf93nzzTfp7+9n8+bNrFixItJZEmymUxujG9vPNJ5AMkGaL9ETK+PEBmZTIzwAamxsbMkygLaOHjFhCjZpesmCl0Mul+eFF17gb//2bzkyPEztylX4xSITFy/SWVXBupVdTExMcOnSJXzfp7W1lc2bN3PHHXdEh8p/+ctf5sUXX+Spp57iHe94B9/4xje4dOkSf/AHf8ADDzxAOp2OEjYyMsIXv/hFfvjDH3Lffffxu7/7u3R3dy/S1dTRzAibbvLbkObF7HfEyNpaxrDlK2XdiSGMnucxOzsbjV5EMMaKnN1uCd3cHun7PuMT43z/+9/j7/7u7zh16hRlZWX4vs+GDRv4gz/4A2644QZ6enp444032LNnDz09PczOzrJixQoaGxvp7e1l48aN/NEf/RHJZJLPfvazVFVV8cd//MfcfPPNkQ4qXNU8dOgQ/+2//TeOHj3Kb/zGb/DRj36U1tbWRYm30ypps41lykYH/zWafH7pEYQix2zTiSmQ2uxIlVVyZVhk7/AyFZTfixREBTcHO8E95+l0MBY/cuQI9fX1/NEf/RGbN2/m4MGDzMzMsGPHDu655x7uvvtuHnzwwajNvnDhAseOBcd1z87O0t/fz8GDBzl9+jQ7duzgwQcfpLa2dpEhHcehra2NsrIyDh48yKlTp+jq6mLVqlWRgcSwkb7GGotZkARRmDBdqKAwOTGrjLYMsYs8y/9ocmR7ysZ3cxUQq6SbyhElYkGG73v4vub48ZO8/NIrrFq1mve//31cf/02+vv7eemll0ilUmzdupWmpibq6+vZsGED7e3tnD17lsnJSW6++Wbq6+s5efIkR44cYWJiIkp0U1MTNTU10ShFjNfQ0MD8/Dx79uxheHiY7u5u2ltbcRTB5btyOLIC0Gg8UHqR7ovTFF78HXp51kUkwmMWSkHcc3R+eiQ85sJAUxGzqsQpiDFrJcy8XTtfY/fu3Wzfvp377ruX1rYWXDdBT08PJ06coKWlhbVr15JOpykUCvzTP/0Tzz77LHfffTf/+T//Zz760Y+ybt06+vr6mJycZHh4mNOnT9Pe3s7MzAxvvPEG2WyWyspKEokEqVSKtrY2BgcH2b17N1prVqzooLwsDSgcxwVHSqLG1+HEJjw02URcWku16WaY5bDE6FjNi13STaObNKkB8ixuZmaaF1/8KQcPvsU999zN7bffTiKRpL6+HqUUb775JkNDQ9HlrM899xxf+tKXqKmp4bd+67fYsWMHDQ0NjI2NsXv3btasWcPv/d7v8b73vY9Nmzbx4osv8td//dd861vf4rXXXqOvr49MJhNdjNLT08Orr77Kj3/8E77yla/z0ss/I5sr0NzcFGwvUUW0LoYlX97FLp3QyG8/HO1gGNdM79UcEAwZ4wLL6CUZbpGwA9r8JiRTtNYMDg7yz//8z2QyGR5//HGuu+46CCcRXV1djI+P8/rrr1MoFMhmszzzzDMMDQ3x4Q9/mEcffZSamho8z+PnP/85r7/+OnfddRcf/ehHueWWWyLDtra2ks/nOXXqFC+99BLPPfccu3bt4sqVK4yPj3PhwgUmxifIZLOcPdvDgQNvUl5exvr166iqqoDociq5CXzBHiYkrVKTS3WYV4P7qU99KroE1ux55atgeQtjGtLkNf3kt/z3wzsnXn75Zerr63nXu97FypUroyP86urqqK+v59SpU+zevZs9e/Zw/vx5Hn74YX7t136NlStXkkwmmZmZ4bnnnuP8+fM88sgj7Nixg7KyMlzXpbm5mdtvv51HHnmE+++/n02bNqGUoqenh71799Jz4RIVdfVsvvtBNt39IBWNTfQODjI/O8n1W66ja8UqXJXAUQkcZ3GabLsIXdp0e/Ypab+qW7B/gFKl9+1AwjqOw8jICFNTU7S3t0dvdCRBSiluuukmnn76aaqrqzl9+jTr16/nqaeeYs2aNTjhYtLg4CB9fX3U19ezatWqJcNYgPr6em699VZ+//d/n8997nN885vf5Pd///dZsWIFK1asYOWqldTX17Fy5UrqGpu4PDTMldEreMUi2l8opaZuYmSTLrB53w6WGP3tCigFrTWZTIaBgQHy+TwdHR3U1NQs4lHhjLe5uTkahTQ3N9PQ0BB1UkopBgYGGBgYoL29nba2tqh0CeyC4jgOmUyGTCZDoZhnbm6G+flpPD9PJjdHPj9PZUUFFeVVOG4C5Sw16tUKnulv/78aFn3SKIjL2bcDUWh6epre3l6UUnR2dlJZWYlvrcJdunSJZ599lkuXLlEW3rL+8ssvMz4+jjIujRobG6OtLVilxFrjFl1nZ2fZuXMnn/nMZ/i93/s9vv71rzMzM8PAwAC7d+9m586f89prrzEyNMSNN9zA2rVrcd0l5W5ZXC0zrgWO9MamkwSJn/lMGHFcGJPf930mJia4fPkyFRUVtLa2Rp2yyJiamuLZZ5/llVde4cYbb+R3f/d3aW9v5wc/+AG7du1ienqasbExTp06heM40eqhqVM+n6e3t5fvfe97/OEf/iG/+7u/y1e/+lXS6TQf//jH+fP/8//kiUceITU5xuCeXXiXenj/fffwG08/TWdnJwWlyTmaAj5Fv3SazGexhe0kXSbNDuv7fnCj13KlWvzeTu4K75UrVxgeHqampia6+01QLBbZs2cPP/zhD6moqOCDH/wgt99+OzU1NXzpS1/i29/+NitWrMB1Xfr7+2lsbIzacxXerXf58mV27tzJ9773PQ4cOIDv+2zevJlf//Vf54knnqC7u5tkMsnjjz/O/v37+drXvsbJ48e5++672bJlC+l0mqL2o0lPoPfiobPA/G22BG/HLoKEBLYFybPpL7moYhbIzDDCPzQ0xPT0NJs3b46WYaVE9PT08N3vfpfLly/zkY98hLvvvpvW1lY++tGPMjg4yLPPPstf/MVfkE4kOfDGHrbfdBN1NbVkM1nOXzjPK6+8wgsvvMCRY0dxEwnuuPMOnnzPkzzwwAM0NTXhhHMMx3FYuXJldNnVpUuXGJkYY3Z+jqqaapTWuEbH6ZQ4V9dRDlorNAsTI5kJY0wI4/obrMLrCME2YqnfphARZEJkSSdaLBbp6OigtrY24pmcnOS5555j//793HHHHTz++OO0tbXhui4tLS3cc8891NfX8/zzz/O9732PwcFB3nzzTf7+7/6OP/mT/53f/u3f5jOf+QwXL17kscce43/81V/x+c9/ng996EN0dHREBUSgtSaVSrF582Y2btxIeXk5Tjjkk1duplHk/2IZ4f/w2Ww+7KZFwooTXpHnCLMZwXIGNZUzwwgkktnZWfr6+kgmk3R1dUU7xQqFAnv27OHFF1+kra2N973vfWzcuBEVjuuLxSKXL1+mMD7OxoYGPn7dLfynldtZOTnP81/7Mt/6yv9Nwc/xv/32b/GFL3yBv/iLv+TJJ5+io71jUfMVhxtvvJFPfvKTfOADH6CxsTEq2WZa5fcSGygNyjfMHpJtvqtAm0NGO3fiDHqtUOGlsAMDA9TW1kZG932fY8eO8e1vf5upqSmeeuopbrvttuizRsIRyJkzZ8jl82y67jq2bN7M9u3b2bhhA6nyCt75rnfx+c9/jk984v/gzjvvpK62NmgSFmkQ3xclk0l6enr48pe/zJ49e8hkMos65TiIUW3DxtGWg6mPY1YTu5e1/Ur5i9JSyovFIgMDAwwNDdHQ0EBlZWW0DeMHP/gBR44c4d577+Xhhx+mpqYm2manw9HI/Pw85D3KtUNDXtM8naM679FUVsaW7m7Wrl5DeboMfI32fLTn4Rl7VUxdvfDMrUKhQD6fp6enh+985zu89NJLjI+PLzK4Nt6O2c6WafvbvKXCaDSOVDGzqilrSm/STZrpJDedcMvE5cuXyWQyrFy5kubmZvL5PC+++CLPP/88HR0dvPe976W7u3uR/NHRUX76059y7NgxxifGOHf+HBcvXuTC+fP09feTz+UpForB6zLHwXEUjqVvKf2c8OS9zs5OampqGBkZYXp6umSJLVXyrwUiL1a2eQKpKCvrCbby0ltHfgROBJt+2WyWy5cv44aLWhUVFRw8eJBnnnkGrTXve9/7ooUvx3HI5XLs37+fP//zP+e//tf/ysDAAJUdbZyYGuO/ndzDf+5/k58xS4/r840f/pCv/eNX6T1/Ce3r0PjxBcRMlxPuU5FCMDAwwMhIsO9R+M10yP+49Mf52Xwmv8njqsTCgpcoF2TGwulA5ispcUoFJSxIlWTbQg6PjY3xk5/8hPHx8agJ+epXv8r+/ft5z3vew1NPPUVDQwOO43D58mW+9a1v8d//+39n9+7dbNy4kX//7/89H/vYb7Bp40baG1u4fvNWnvzg+7nzgfsYGRzi1Zdfof/yZZpbWmhubiJpvN1SxhYJN+bgYa01hw4d4sKFC9x4441RbZOwZoYJTJo0oWYhE/vYvCYi2YQXe2O8H5QA5nq6KWRBuBPYW7x0IBCl6Dl/jud//BwJx+WWW3Zw4M0DPPPMM2zatImPfvSjrF27lunpaV5//XX+5m/+hm984xtorfnwhz/Mv/t3/4777ruPdevWc9vtd/DYU0/y6Huf5NY77uDm7TezYcNGroyN8ZMXf8qRE8GF3itWrFhyEDMxBzL44Runnp4ejh07xpo1a7juuusWnU8gBhQnMP1EjplZJo8NMTYolAb3z/7sz2I3G5kl3awBCyV9sdF1aHCU5uDBQ7zw/E9obW0hkUzwwx/9CK01H/vYx7jtttu4dOkS//iP/8jf/u3fcvbsWe69917+6I/+iPe///10dnYuGTsL3ESCzo4Orr/+epTjsGfPHl7fvRvf81ixYgU1NTU4jhN9niIyTFmu6zI0NMTrr79ObW0t27dvp6amBmXVDDGgHZ5wjO6ETYZtaDu8SVdKgQ9qfHxcm8yCfD4P4TDL9NMqeFcotKLv4/uapOOScFzms/N88R++yDe+8lW6160nn8tx6dIlfvUD7+fRxx7j5MmTfO1rX+Po0aOsW7eOD3zgAzzxxBO0tLQsqqJmRguUUjiui48mm8nyT//0z3zxf/5PJifGefe7382HP/xhNmzYAGHNlT070chBaxKJBHv37uUv//Ivqamp4T/8h//ADTfcsKhAqXDOYOpjGlFaAddYCcXIDBMLMhIoHBKui8pkMhpr+uqHp9W5xhfTIsDzfQivlQ8iU3i+Jjef4cK58xx4cz/f+8H3OPzWIdKpFH6xyG233sYdd9/FwcOHePXVV0mlUrzzne/kgx/8YHR/szY2LEkJMg0uCF4QK3wfZmZm2b1rJ1/60j9w4MABbrnlFn7nd36HHTt2UFVVtag/kv9aay5evMhnPvMZLly4wB//8R9z//33L6ldwothdB02LfnwrF3T6GamCc2UI0ZXGLt2baPPzs7iOM6ifYa+H6zEKeXguC4ocLRiZHCQb/7TN/nmt7/JiZ4TzM3PQ3jsbHt9CxtXr2diaorxiUlu3rGD9/3q+7jjjjvo6OiIMlUShNG/CF2c4zhonOCtmg78ivkcJ04c5x/+4R947rnn6Ozs5CMf+QhPPPEE7e3tkRyRpcLFsj//8z/nBz/4AR//+Md5+umnqQ0nWXa8iNEJDOv5wbjfNb45UkbNkAwyM0J0DwQbt6nbRo/bDRAIAOU6QYkD5mZm+O53vsvff+HvmJ6Z5o577uDeh4I3/tNTU0yOTjA6coXmlhY+9pu/yb/5g3/D9ptuory8nGQyGSkusAuAKG8Q0KEBAFzHobW1Jaox+/fv57XXXqNYLNLZ2RkZU6DDDUE9PT3s27ePtrY2tm3bRnV19SKjmxCjS/i4jnRRBsV0qPKslFroSG2mfLhrV059jpyvo/G51j7Hjx3jf335HzmXG+ah33qKWz/2KE0PbGTVHVuZq1H09feyobub//Sf/pgPPv1B2jtWoJUT9APJhSpqwtQlrsShg90qKHmH6VBbW8vNN99Me3s7p06d4pVXXuHy5cu0trbS2tpKIjw8QdIxPj7Ovn37yOfz3HTTTbS1tUV+ZpymPhqNT9DEmhkkYbBqqUkX2QQbmuNhJlyqju/7+NpH+6HTmgsXL3Dh4gXWrlnDtm3bqKqqwnEcqqurueGGG1ixopNUMkUq3HOYy+fxvMWbUM0ESjx2wpdAKbSWDU2BvPLycn71V3+V//Jf/gt33nknP/3pT/nTP/1TfvjDH0ablER+V1cXbW1t9Pf3Mzw8TKFQiKbtwiPPZkcs71Oj/4a+GPrbaZDf2ty1Kx7yX0Yvbvi9aCRAh7nmBHtEjhw6yOu7dlLZ1UD3zZtxmlJk0wVcH+ampjmz9win3jzCwf0H+fkruzh08BB+0aeiopyc8WWzGX9UKgy9NEC0yyrQIyAuTVRzczObN29GKcWePXvYt28fnufR3t4eDSu1LnL02GFOnT7Jlm1b2bBxE8lU2JRqgrVzDSpaXQz10xrf2J9u6mjqbBcoM03uJz/5yWjfi8koXwUnwjNTomqjCdY7nKAjnZqY4NDBt7g0NUjruhXUdjbgpcEtwNE3D3F05wHKfJfKdBXDA8McPXqUsvJyRkev8J3vfJtMJsPk5CQvvPAC+/bt4/Lly8zNzS1qN1VYLZU5P4ja9YUmw6zaLS0tbN++nfr6eo4ePcrOnTuZmppi1apVNDY2kkwm6O3r5eChw3SsWMG2rUEtDfYsivEUSoHjKFzHDXaGhfZxY450FRuKHnF0iJkcCZO9DCBQwSpZtOZRXl5Of28/+/ccYLxvjJp8muRIkZOvHOS1f3qJ5Izm33/83/KJ//0TPPmep3j00ce48847KS8vo1gssHLlSk6cOME//MM/8Mwzz/D888/zox/9iB//+Me89NJL7N+/n9OnTzM0NMTs3FzQ1zgOqVQSCEq2qXdUI4Hq6mq2b9/O6tWruXjxIq+++io9Z3tobGigs2slExNT7N/3Jpn5HF2dK6mvayCdSuE4CnBQygmMrRYb1zNO7IszrMkb2c0wuioWi0HNNUqJX2LIqLVG+/6iko6vOX70GH/1D3/DMz/5ERNTI6CD8WJjRxu/+YHf4P/zkd9iTddanKALJpvLk8/nKCtL47oug4ODHD9+nNOnT3Pu3LmonZUdWoVCgXyxQFlZOatWrmTtmjWsWrWKrq4u1q1bR1dXFw0NDdTU1ETr9jIIkIQeOnSIL3zhC/zkuefp6uzk6Q99kJnZWb721a9zqbeX+vp6duzYwdNPv5/777+fxoamYKkjnGhHM+9wy6GM05XV8ZqGFn6hC+8iowt832dubi4qyeInnYtjzcZ8z2dgYICf7/w5u3bv5MroCJ2dK7j33vu46/a7aGlqRTluuL8EMpngIpLy8mCXlsiR7zed8HXflStXuHDhAmfPnuXs2bOcP38+Wh2cmZmJOr2ysrJoe92qVatYvXo1a9euZdWqVbS3t9PY2EgqlQoX177NN7/5LXrPn8cFamqKNDaWgXYYHZ2lrmEd/9vH/4D3f+gDNLc244RdCWqhU88Z1zMI3pbRSx3IYBrdLOlLjC4H4BCMbIp+Ac8v4rrhJ3/awVEJVJRxmkwmR7GYp6wsHfUZyrhDQ/SReL3wg9pcLsfk5CRDQ0NcvnyZS5cucfHiRfr7+xkcHGR4eJjR0VGKxSKu61JdXU1HRwddXV10dXWxZs0aampq2bXrNV7+yQs01tfx1FP3cOutW0kkUuzbd4B/emYntfWd/Mkn/oR777uXdDIZlvSg//Ct21/Mki4GxjC+jKwkPVrrhfNeTMObzYsY3TaKGaEMjyS81hqlQOODT9Am4gQ9ggrOe8kXguZF5gGmHInPVFpgJtIP31Jls1lmZ2cZGxtjYGCAM2fO0NPTQ19fH4ODg4yOjkYffiUSSbQPtaksH/rVd/PRJ5vobJwAx2dmdoa//8YFXvh5Lx/9+Cf40Ed/n6b6miAtysHX4GuPQiGYw5gdqehulmx5NtMDxiE7/1KjY+UmaHztvS2jm0o61t3QpSC8pi7ykVoul2NiYoKxsTEuX75Mb28vPT3nePXVn5Of6uPjH3uaX3mojLp0P1p5+NrnG8+O8r++dZwnP/C7fPz3/x1tLc2gNVqpJUYXG2B14KIXRqERG4b6BgqbzYvNJAKMQBEtjjfwd1C40fRZOYDyUVoHiz56weEvbvdMObYz47UzxQwDUFlZyapVq7jlllt4/PHH+Z3f+R0++YlP8J7H3026rILRiRnms0U0CSBBNltkfHwGT+cpq3RQSY2vNFoFZxQoJ6jBcbqaccvIxnTmaGexpQ1h9m/T34aUMHGLZnAGz7UgLk7bsKa/PNsZYELoSimqwmFkTU0Db7yxjyNHjjI9PcP09AwH3zrI3r2Hqatt4MbtN1BXV4tseJHxu5mppSA6mP/NZnLRGV6SAGle3GVONhJ+k26Gj0u8+GezWfL5PGVlZYu2X5iGNSGZKfFKfL6x20zohKMLHc50zUwS/8HBQb7w93/HN7/xDVJMs351Kx4Jzl/opajL+PXf+G1+47d+i7aODlwngQpO+olgjl7EBqZ8W3+TrpRaMLrNFLeeLn5icJMmRjETaBs+zujy9Z5pRNtIIsv0k8SKPrbRCV/ACEx+pRQD/X388Aff57nvf4WeUyfwUGzY0M0TT32Ix9/zq3SuXIWvgv5oYfYbQBYD7Tbd1N+2jxle5fN5LR7CrEOjEy4ilapOpiA7vFkKbeSsg9MkPDHNh9BFfrCXUKNw0TrgK2V0c3Rhy9LhWWIjIyOMjo7i+z4tLS3RJ5FmnKY+GEZ3rUPrMUuzlRmL/AuFgh4eHuaf//mfcRyHJ598ko6ODmZnZzl06BC7du1ix44d3HfffYsmA7ZgUdBxHC5evMjJkyfp7u5m7dq1kWLnzp3jwoUL0aTFPK3OlGE6oeuwRF++3Mf+A/voXr+RTZs2R7qYmWs2L0I35WBllMQrsoR/dHSUffv2sWHDBrq7uxfJNydHIiOupAtd4lTSkc7Pz9PT08OuXbu4cOECvu+TyQTf9e/evZvR0dEo8Pz8PPPz80siyOVyZLNZfN9nZmaGvr4+xsbGmJubiyZUjY2NdHd3U1dXFy2Z5vP5aEVTDFQoFJifn6dQKESKC+azc1zqPcfExCS+HwxDBTqcoudyuUg/QT6fJ5vNosPFKt/3KRQKZDIZcuHZv3443JRvoiorK9m0aRMNDQ0UCgWKxWLEb2aUTNwkPcVicZHOdkGKim5nZyfz8/NcuXIlmoIDrFy5kpqaGnLhhqA33niD6elpNm3axDve8Q7q6+vZvXs3+/btA+DBBx+kvLycsbExfvSjH/Hss8/S2trKI488gu/7XLx4kcbGRs6ePcvo6CgzMzMopXjkkUfYtm0bly5d4mc/+xmXLl2iq6uLRx99lNWrV0eJUEbJEkim79+/n9dff53Jycnwm9X7aGho4NVXX2XPnj1MT0+zZcsWHn74YU6fPs2xY8fIZDKsWbOG6elpstksU1NTuK7LY489RmtrK8eOHWPDhg3s27ePvr4+JiYmmJ6e5r777uPOO+9kfHycF198kd7eXqqrq6mrq+PBBx9cVMNFR8kk91Of+tSnJycn6evrI5VKUVVVRX19Pb29vWQyGQA6OjrIZrOcPn2am2++mdtvv53jx48D0NfXx6lTp7jnnntYvXo158+fZ2ZmhnPnzrF+/XoeffRRzpw5E5Xa3t5eysrKePPNN0kkEjz55JNMTk4yODiI67q88sor1NbW8p73vCf8HPE8DQ314TYJh/GJEc6ePUVH+0o6O1dFXzkfOnSI119/ne3bt3PnnXdy8OBBAAYGBujt7eXOO+9ky5YtvPXWW6TTafr7+xkaGuKhhx5gzdrV7Nq1i/r6Bh5//HGGhoYYH5+kvr6BE8dPUl/XwKHDbzE9M8W73vUuUqkUJ06coKKigp07d1JeXs6jjz7K8PAwZ8+eZf369dH72aiwGEZ3CIdkhUKwzFosFrlw4QKTk5PU19dTX19PIpFg1apVrFmzhhMnTvDDH/6Qo0ePMjw8zKVLl6LzV2655Rbe8573sG7dOlavXs2WLVtYv349zc3N6HCN3g+HkzU1NWzatIk1a9bQ1dVFIpGgt7eXCxcusG/fPp555hn27t3LsWPHGLkygi9vY8KJlCZ8exN+aHvmzJnoNd0Pf/hDDh8+TE9PDytWrGD16tW8+eab/OhHP+LkyZPRHsauri7aOzooS5dRW1vL+vXrA1p7O4mES6FQQLOwB+im7TexYcOGSN/Lly+TzWZZt24d69at46abbqKrqytqvqQJFRct6M3NzUVtYH19PclkksOHD0cfVqVSKcbGxnjttdd44403qKys5NFHH2Xz5s344eJPNpuN2vqxsTHGxsaiSES+tPnyW4eLZ9lsNqLn83lqamq48cYbufvuu3n44Ye57777qattIJPJhl/MZSkUPHK5LJnMHPOZeebm5igUCrS0tHDjjTdy66238thjj7F161beeOMN3njjDZqamrj77rtZtWoVXngmmOd55HP5KP35fJ5MJhP+n2d+fpZ8Pku+kI0W6ubnM1H7ns8HYefnAx3m5+fJZDLMzc0xNzcXtf+SdnFOZWVl9CFsbW0tq1at4tKlS2SzWTo7OykrK6Ourg43XJ9ubW0NT57riQw0PT3N0aNH2bt3Ly+99BLDw8Mkwg9/Zf9JIrweOBF+u59MJkmlUlRUVFAeXr2zZs2a6OtnabrGx8cpKyujoqKCiooKysrKKeQLXL48yPnz54OvoScm2LRpE9XV1ehwlNPT08Po6CjZbDb60GxmZoaxsTFUeI5NMpmkvLw82pmQSqWorKyM9K6pqSGdTkfziaqqKqqrq6NRV2dnJy0tLZw7d45jx46xb98+hoeHqaiooKqqisrKSiorK6mqqopcZWVl8OYon89TKBRobW2lo6ODYrHIihUrWLt2Ldlslrq6OjZv3szY2Bj79u0jnU6zbt06VqxYwebNm0mn09GJE3fddRfr16/HdV06OjpoaGhgZmaGhoaGqCY1NTUB0NbWRnt7O5lMJpLZ3d3N0NAQ+/bto6GhgXvvvTdqH5VSFAtFjh45wa5du3njjWBbXdErcvPNN9PZ2cmJEyc4fvw4119/PXfddRdr165lcHCQo0ePUl1dzYoVK1izZg1lZWU0NjbS2dmF47jMzc2xYsUKmpubmZubI5lMRl/yrVixAt/3aW5uprm5mfn5eTzPY+3atWzZsoWhoSGOHDkSviMoj76xsiFterSersLpO8Z6ejKZpKysLOoMZNSQiLn2QIZQ0nmYz344W9XhsLNQKJDL5aJSJHGqcLxtdj4SRp4DvTVoJ3ylptHRt/0Lw0apmQLRSWDqKUPEaBwdps0Ld5zJmF76o1y4rc7zPF5//XWqq6vp7u7m1VdfZWxsjEceeYRVq1ZFcQlEx+jYV2Vdq4AxPhaaG57/IsqVgvBiHNMhiUkad2AIDzEGxhqfL0H4ln5hSS0kGxntGWdzlZJl6mKm3YTIFH5BMpmksrKSn/3sZ3zmM5/h1KlT3HbbbXR2dhqhl2LJzbvyX9ZeZBlAclkiFcObhhI5oqDQJSFSmnPGRSQyqxNDyW+MBJoFQ97goBXmxMhEPnyzI0sMhHGL/iIfowZIaTYzSXhtffIx17RJBkvGiW0kjPAhQ0ZlrTJKBGYAk6ZDQ8tQSJ5NJ2FtOaYMW774Y+i0pFZpFTYt8QYvFZfpZ9OF5lkffZn2kGfzt+kvul4NWmv+/x8EWuaNKXhVAAAAAElFTkSuQmCC;" vertex="1" parent="1">
          <mxGeometry x="703" y="160.9" width="93" height="268" as="geometry" />
        </mxCell>
        <mxCell id="9tGZcHX2xvWMXHM-Ml2c-44" value="" style="sketch=0;outlineConnect=0;fontColor=#232F3E;gradientColor=none;fillColor=#C925D1;strokeColor=none;dashed=0;verticalLabelPosition=bottom;verticalAlign=top;align=center;html=1;fontSize=12;fontStyle=0;aspect=fixed;pointerEvents=1;shape=mxgraph.aws4.rds_sql_server_instance;" vertex="1" parent="1">
          <mxGeometry x="194" y="40" width="40" height="40" as="geometry" />
        </mxCell>
        <mxCell id="9tGZcHX2xvWMXHM-Ml2c-46" value="&lt;i&gt;SQL server&lt;/i&gt;" style="text;html=1;align=center;verticalAlign=middle;whiteSpace=wrap;rounded=0;" vertex="1" parent="1">
          <mxGeometry x="235" y="50" width="71" height="30" as="geometry" />
        </mxCell>
      </root>
    </mxGraphModel>
  </diagram>
</mxfile>
